<svg width="133" height="28" viewBox="0 0 133 28" fill="none" xmlns="http://www.w3.org/2000/svg">
<path fill-rule="evenodd" clip-rule="evenodd" d="M126.441 11.4864L131.936 5.42542H127.843L123.342 10.4687V5.42542H120.086V18.1581H123.342V12.7982L128.159 18.1581H132.366L126.441 11.4864Z" fill="#F03024"/>
<path fill-rule="evenodd" clip-rule="evenodd" d="M114.342 10.1744H109.842V5.42542H106.584V18.1578H109.842V13.1372H114.342V18.1578H117.598V5.42542H114.342V10.1744Z" fill="#F03024"/>
<path fill-rule="evenodd" clip-rule="evenodd" d="M19.811 12.3229C19.7331 14.6969 19.4266 15.1725 18.0923 15.1725V18.1578H18.5896C21.9182 18.1578 22.7187 16.4388 22.8415 12.617L22.9774 8.38788H26.098V18.1578H29.355V5.42542H20.0372L19.811 12.3229Z" fill="#F03024"/>
<path fill-rule="evenodd" clip-rule="evenodd" d="M35.0975 9.29273H37.4494C40.5477 9.29273 42.3119 10.8759 42.3119 13.6799C42.3119 15.8514 41.0453 18.1581 37.4945 18.1581H31.8407V5.42542H35.0975V9.29273ZM35.0971 15.3538H37.2003C38.3536 15.3538 39.0094 14.8336 39.0094 13.6799C39.0094 12.6173 38.331 12.1196 37.2003 12.1196H35.0971V15.3538Z" fill="#F03024"/>
<path fill-rule="evenodd" clip-rule="evenodd" d="M52.9179 5.13149V0.404785H49.6614V5.13149C45.93 5.44804 43.4194 8.09424 43.4194 11.7805C43.4194 15.4894 45.93 18.1356 49.6614 18.4521V23.2466H52.9179V18.4521C56.6494 18.1582 59.16 15.4894 59.16 11.7805C59.16 8.07136 56.6494 5.42545 52.9179 5.13149ZM49.6611 15.3764C47.8517 15.1276 46.7209 13.7706 46.7209 11.7805C46.7209 9.79036 47.8517 8.43338 49.6611 8.18458V15.3764ZM55.8577 11.7805C55.8577 9.79036 54.7269 8.43338 52.9175 8.18458V15.3764C54.7269 15.1276 55.8577 13.7706 55.8577 11.7805Z" fill="#F03024"/>
<path fill-rule="evenodd" clip-rule="evenodd" d="M71.3739 9.97104V14.2456C71.3739 14.9465 71.6002 15.2179 72.1882 15.2179V18.1581H71.0574C69.8136 18.1581 68.8636 17.6831 68.4341 16.8237C67.9518 17.535 66.8486 18.4746 64.8605 18.4746C62.15 18.4746 60.2696 16.6652 60.2696 14.0194C60.2696 11.4862 61.9884 9.97104 64.8834 9.97104H68.1175C68.1175 8.43331 67.303 7.84538 66.0367 7.84538C64.499 7.84538 64.0014 8.65923 63.8881 9.13424H60.5862C60.7447 6.9634 62.5764 4.88232 66.0367 4.88232C69.3838 4.88232 71.3739 6.85011 71.3739 9.97104ZM65.7197 15.7155C67.0767 15.7155 68.1171 14.8787 68.1171 13.4088V12.572H65.5161C64.6341 12.572 63.6164 12.7753 63.6164 14.0194C63.6164 15.286 64.5435 15.7155 65.7197 15.7155Z" fill="#F03024"/>
<path fill-rule="evenodd" clip-rule="evenodd" d="M81.6845 7.23486H85.3259C89.2386 7.23486 91.4773 9.27047 91.4773 12.6401C91.4773 16.2135 89.2386 18.1584 85.3259 18.1584H78.2697V0.404785H90.1208V3.63892H81.6845V7.23486ZM81.6845 14.9468H85.1675C86.9765 14.9468 87.9943 14.1556 87.9943 12.6401C87.9943 11.1702 86.9765 10.3334 85.1675 10.3334H81.6845V14.9468Z" fill="#F03024"/>
<path fill-rule="evenodd" clip-rule="evenodd" d="M103.941 9.97104V14.2456C103.941 14.9465 104.166 15.2179 104.755 15.2179V18.1581H103.625C102.38 18.1581 101.43 17.6831 101.001 16.8237C100.518 17.535 99.4149 18.4746 97.427 18.4746C94.7169 18.4746 92.8361 16.6652 92.8361 14.0194C92.8361 11.4862 94.5548 9.97104 97.4498 9.97104H100.684C100.684 8.43331 99.8695 7.84538 98.6032 7.84538C97.0655 7.84538 96.5676 8.65923 96.4547 9.13424H93.1528C93.3112 6.9634 95.1429 4.88232 98.6032 4.88232C101.951 4.88232 103.941 6.85011 103.941 9.97104ZM98.2864 15.7155C99.6437 15.7155 100.683 14.8787 100.683 13.4088V12.572H98.0826C97.2005 12.572 96.1827 12.7753 96.1827 14.0194C96.1827 15.286 97.1103 15.7155 98.2864 15.7155Z" fill="#F03024"/>
<path fill-rule="evenodd" clip-rule="evenodd" d="M0.474609 27.205H17.8888V23.5862H0.474609V27.205Z" fill="#F03024"/>
<path fill-rule="evenodd" clip-rule="evenodd" d="M9.31944 0.19104C11.28 0.19104 11.8524 1.3606 12.3489 2.84128L17.4836 18.1576H13.6841L12.5307 14.5168H5.65577L4.41176 18.1576H0.83844L6.22695 2.84128C6.74947 1.35598 7.3583 0.19104 9.31944 0.19104ZM9.13891 4.18118L6.69633 11.4407H11.5363L9.22925 4.18118H9.13891Z" fill="#F03024"/>
</svg>
