<svg width="145" height="38" viewBox="0 0 145 38" fill="none" xmlns="http://www.w3.org/2000/svg">
<path d="M59.4267 23.3884C58.7323 23.8981 58.0379 24.1812 57.2278 24.1812C55.6076 24.1812 54.4503 23.0486 54.4503 21.4063C54.4503 19.8207 55.6076 18.6881 57.2278 18.6881C58.0379 18.6881 58.7902 18.9712 59.4267 19.4243L60.8154 17.1024C59.8317 16.253 58.2694 15.6866 56.7071 15.6866C53.5824 15.6866 51.0364 17.8386 51.0364 21.463C51.0364 25.2572 53.8717 27.126 56.7071 27.126C58.3851 27.126 59.8896 26.5031 61.0469 25.5404L59.4267 23.3884Z" fill="#00475D"/>
<path d="M72.6196 24.6909C72.0409 24.3511 71.8674 24.0113 71.8674 23.0486V19.7074C71.8674 17.0458 70.1893 15.6866 67.2382 15.6866C65.6759 15.6866 63.94 16.0264 62.6091 16.9892L63.5928 19.1411C64.4029 18.6881 65.5023 18.4049 66.5439 18.4049C67.7011 18.4049 68.5112 18.8013 68.5112 19.8207V20.1605C67.9905 20.0472 67.2961 19.9339 66.5439 19.9339C63.7085 19.9339 61.9147 21.4063 61.9147 23.5583C61.9147 25.7103 63.7085 27.0694 65.7916 27.0694C66.8332 27.0694 68.164 26.7296 68.8584 25.6536C69.2056 26.673 70.4786 27.0694 72.2724 27.0694L72.6196 24.6909ZM68.5112 22.3124V22.8221C68.5112 23.8981 67.4697 24.4644 66.5439 24.4644C65.8495 24.4644 65.1551 24.1812 65.1551 23.3318C65.1551 22.5389 65.7916 22.0859 67.0646 22.0859C67.5854 22.1425 68.164 22.2558 68.5112 22.3124Z" fill="#00475D"/>
<path d="M75.2235 23.3885L73.8348 25.2573C75.1078 26.2767 76.323 27.1262 78.4639 27.1262C81.0678 27.1262 82.9195 25.9369 82.9195 23.5584C82.9195 19.4244 77.4802 20.7835 77.4802 19.0846C77.4802 18.6316 77.8853 18.2918 78.6954 18.2918C79.3898 18.2918 80.4313 18.5749 81.415 19.1412L82.5723 17.2158C81.6465 16.423 80.1999 15.7434 78.4061 15.7434C76.0915 15.7434 74.182 16.8194 74.182 19.3111C74.182 23.4452 79.5634 21.9728 79.5634 23.6717C79.5634 24.1814 79.0426 24.4645 78.1746 24.4645C77.1909 24.4645 76.2072 24.0115 75.2235 23.3885Z" fill="#00475D"/>
<path d="M95.1289 26.8995V20.217C95.1289 17.4988 93.8559 15.7432 91.1941 15.7432C90.0947 15.7432 88.9953 16.0264 88.3009 16.8192V10.5898L84.8869 11.1561V26.8995H88.3009V20.6701C88.3009 19.5375 89.0531 18.8013 90.1525 18.8013C91.252 18.8013 91.7727 19.4808 91.7727 20.5568V26.9561H95.1289V26.8995Z" fill="#00475D"/>
<path d="M106.47 26.8995H107.859V10.5898L106.181 10.9296V17.612C105.313 16.3662 103.924 15.7432 102.42 15.7432C99.5843 15.7432 97.2119 17.8952 97.2119 21.5196C97.2119 25.2572 99.7001 27.1826 102.362 27.1826C103.982 27.1826 105.371 26.4464 106.297 25.1439L106.47 26.8995ZM102.593 25.597C100.452 25.597 98.89 23.9547 98.89 21.4063C98.89 18.9145 100.394 17.2156 102.593 17.2156C104.734 17.2156 106.297 18.8013 106.297 21.3497C106.297 23.7848 104.85 25.597 102.593 25.597Z" fill="#00475D"/>
<path d="M111.157 26.8996H112.835V21.4631C112.835 19.2545 113.703 17.2724 115.96 17.2724C116.365 17.2724 116.712 17.3291 117.059 17.4423L117.291 15.9133C116.886 15.8 116.423 15.7434 116.018 15.7434C114.513 15.7434 113.53 16.423 112.777 17.7255L112.604 15.9699H111.215V26.8996H111.157Z" fill="#00475D"/>
<path d="M119.837 13.5347C120.473 13.5347 120.994 13.0251 120.994 12.3455C120.994 11.6659 120.473 11.1562 119.837 11.1562C119.2 11.1562 118.679 11.6659 118.679 12.3455C118.622 13.0251 119.142 13.5347 119.837 13.5347ZM118.969 26.8996H120.647V15.9699H118.969V26.8996Z" fill="#00475D"/>
<path d="M124.639 15.9698H122.846L127.07 26.8996H128.806L133.203 15.9698H131.525L127.996 25.0874L124.639 15.9698Z" fill="#00475D"/>
<path d="M143.792 25.7104L142.982 24.6344C142.056 25.314 140.957 25.6538 139.742 25.6538C137.485 25.6538 135.981 24.238 135.807 21.9728H144.545C144.545 21.8029 144.602 21.5197 144.602 21.1799C144.602 18.1219 142.635 15.7434 139.51 15.7434C136.501 15.7434 134.129 18.0086 134.129 21.5197C134.129 25.1441 136.617 27.1262 139.626 27.1262C141.304 27.1262 142.751 26.6165 143.792 25.7104ZM135.923 20.6703C136.154 18.6882 137.601 17.2158 139.568 17.2158C141.709 17.2158 142.924 18.8581 142.982 20.6703H135.923Z" fill="#00475D"/>
<path fill-rule="evenodd" clip-rule="evenodd" d="M31.1309 2.60498C32.0567 2.60498 32.9825 3.00139 33.6769 3.62433L42.4722 12.1756C43.861 13.5347 43.861 15.7433 42.4722 17.1024L24.3607 34.6579C23.6664 35.2808 22.7984 35.6773 21.8147 35.6773C20.8889 35.6773 19.9631 35.2808 19.2687 34.6579L10.4733 26.0501C9.08461 24.6909 9.08461 22.4823 10.4733 21.1232L28.5848 3.5677C29.2213 2.94476 30.1472 2.60498 31.1309 2.60498ZM36.628 11.6092C36.4544 11.6092 36.2229 11.5526 36.0493 11.3827L32.5775 7.98489C32.2881 7.70174 32.2881 7.19206 32.5775 6.90891C32.8668 6.62575 33.3876 6.62575 33.6769 6.90891L37.1487 10.3067C37.438 10.5899 37.438 11.0996 37.1487 11.3827C37.033 11.5526 36.8015 11.6092 36.628 11.6092ZM38.8268 12.2322C38.8268 12.6286 38.4796 13.025 38.0167 13.025C37.5538 13.025 37.2066 12.6852 37.2066 12.2322C37.2066 11.8358 37.5538 11.4394 38.0167 11.4394C38.4796 11.4394 38.8268 11.8358 38.8268 12.2322Z" fill="#40BAB5"/>
<path d="M2.83548 17.329L7.98539 22.3125C8.21685 21.5196 8.67976 20.7268 9.31627 20.1039L16.6072 13.0251C14.2926 12.6286 11.8623 11.6093 11.1679 11.043L12.2095 9.85374C13.0196 10.4767 17.1858 12.119 19.0953 11.5527L19.6161 11.3828L19.9054 11.8358C22.5672 15.2337 28.0064 15.3469 29.2794 14.9505C29.5109 14.8372 29.5687 14.6673 29.6266 14.5541C29.6845 14.4408 29.6845 14.2709 29.453 14.0444L22.5672 7.24873L22.5093 7.1921L17.8802 2.71829C17.0122 1.86883 15.9128 1.47241 14.7555 1.47241C13.6561 1.47241 12.4988 1.86883 11.6308 2.71829L2.83548 11.3261C1.15742 12.9684 1.15742 15.6301 2.83548 17.329Z" fill="#F9A056"/>
<path d="M19.6159 30.5805C19.9631 30.2407 20.426 30.0708 20.8889 30.0708C21.3518 30.0708 21.8147 30.2407 22.1619 30.5805L24.5343 32.8457C25.2287 33.5253 25.2287 34.6012 24.5343 35.2808L24.1293 35.6772C23.4349 36.3568 22.2776 36.3568 21.5833 35.6772L19.2108 33.412C18.5165 32.7324 18.5165 31.6565 19.2108 30.9769L19.6159 30.5805Z" fill="#F9A056"/>
<path d="M23.6665 26.1633C23.1458 26.1633 22.625 26.3332 22.2199 26.7296C21.4098 27.5225 21.4098 28.7683 22.2199 29.5612L25.4025 32.6192C26.2126 33.412 27.5434 33.412 28.2957 32.6192C29.1058 31.8264 29.1058 30.5805 28.2957 29.7877L25.1131 26.7296C24.766 26.3899 24.2452 26.1633 23.6665 26.1633Z" fill="#F9A056"/>
<path d="M25.576 22.5957C25.981 22.1993 26.5018 22.0294 27.0226 22.0294C27.5434 22.0294 28.122 22.2559 28.4692 22.5957L32.3461 26.39C33.1562 27.1828 33.1562 28.4287 32.3461 29.2215C31.536 30.0143 30.2051 30.0143 29.4529 29.2215L25.576 25.4273C24.7659 24.6344 24.7659 23.3319 25.576 22.5957Z" fill="#F9A056"/>
<path d="M31.2468 19.311C30.7261 19.311 30.2053 19.4809 29.8002 19.8773C28.9901 20.6702 28.9901 21.916 29.8002 22.7089L32.9828 25.7669C33.7929 26.5598 35.1237 26.5598 35.876 25.7669C36.6861 24.9741 36.6861 23.7282 35.876 22.9354L32.6934 19.8773C32.2884 19.5376 31.7676 19.311 31.2468 19.311Z" fill="#F9A056"/>
<path d="M36.0493 11.3827C36.2229 11.5526 36.4543 11.6092 36.6279 11.6092C36.8015 11.6092 37.033 11.496 37.1487 11.3827C37.438 11.0996 37.438 10.5899 37.1487 10.3067L33.6769 6.9089C33.3875 6.62574 32.8668 6.62574 32.5774 6.9089C32.2881 7.19205 32.2881 7.70173 32.5774 7.98488L36.0493 11.3827Z" fill="#00475D"/>
<path d="M38.8268 12.2322C38.8268 12.6286 38.4796 13.025 38.0167 13.025C37.5538 13.025 37.2066 12.6852 37.2066 12.2322C37.2066 11.8357 37.5538 11.4393 38.0167 11.4393C38.4796 11.4393 38.8268 11.8357 38.8268 12.2322Z" fill="#00475D"/>
<path fill-rule="evenodd" clip-rule="evenodd" d="M1.73592 18.4049L7.86953 24.3512C8.04312 25.3705 8.50603 26.3899 9.31613 27.1827L18.1115 35.7339C18.8637 36.4701 19.7895 36.9231 20.7154 37.093C21.294 37.5461 22.0462 37.7726 22.7406 37.7726C23.6086 37.7726 24.4765 37.4328 25.1709 36.8099L25.576 36.4135C26.0967 35.9604 26.3861 35.3375 26.5018 34.7146C26.6175 34.7146 26.7332 34.7146 26.7911 34.7146C27.7169 34.7146 28.6428 34.3748 29.395 33.6952C30.0894 33.0156 30.4365 32.1662 30.4365 31.2601C30.5523 31.2601 30.668 31.2601 30.8416 31.2601C31.7674 31.2601 32.6932 30.9203 33.4455 30.2407C34.1399 29.5612 34.487 28.7117 34.487 27.8623C35.355 27.8056 36.223 27.4658 36.9173 26.8429C37.8432 25.9368 38.1903 24.6909 37.901 23.5583L43.5138 18.1218C45.5391 16.1397 45.5391 12.9684 43.5138 11.043L34.7764 2.54838C33.7927 1.58566 32.4618 1.07598 31.1309 1.07598C29.8 1.07598 28.4692 1.58566 27.4855 2.54838L23.6664 6.22937L18.9794 1.69892C16.6649 -0.566306 12.8458 -0.566306 10.5313 1.69892L1.73592 10.1935C-0.578642 12.4587 -0.578642 16.1397 1.73592 18.4049ZM22.567 7.24872L17.88 2.71827C17.0121 1.86881 15.9126 1.4724 14.7554 1.4724C13.6559 1.4724 12.4987 1.86881 11.6307 2.71827L2.83534 11.3261C1.15728 12.9684 1.15728 15.63 2.83534 17.329L7.98525 22.3125C8.21671 21.5196 8.67962 20.7268 9.31613 20.1039L16.607 13.025C14.2924 12.6286 11.8622 11.6093 11.1099 11.043L12.1515 9.85372C12.8458 10.42 15.9705 11.6659 18.0536 11.6659C18.4008 11.6659 18.748 11.6093 19.0373 11.5526L19.5581 11.3827L19.8474 11.8358L19.9053 11.8924L19.9631 11.9491C22.6249 15.2336 27.9484 15.3469 29.2214 14.9505C29.4529 14.8372 29.5107 14.6673 29.5686 14.5541C29.6264 14.4408 29.6264 14.2709 29.395 14.0444L22.567 7.24872ZM24.7659 7.24872L30.6101 12.9118C31.1309 13.4215 31.3624 14.1576 31.1888 14.8372C31.0152 15.5168 30.4944 16.0831 29.8 16.3096C29.395 16.4795 28.6428 16.5928 27.7169 16.5928C25.1709 16.5928 21.3519 15.7999 18.9794 13.0817C18.9216 13.0817 18.8637 13.0817 18.748 13.0817L10.4734 21.1232C9.08467 22.4823 9.08467 24.6909 10.4734 26.0501L17.1278 32.506C17.0121 31.5432 17.3592 30.5805 18.1115 29.8443L18.5165 29.4479C18.9794 28.9949 19.5581 28.7117 20.1367 28.5985C19.9631 27.5225 20.3103 26.4465 21.1783 25.597C21.8148 24.9741 22.6249 24.6343 23.4928 24.5777C23.3193 23.5017 23.6664 22.3125 24.5344 21.463C25.4024 20.6135 26.6175 20.2738 27.7748 20.5003C27.9484 19.8773 28.2377 19.2544 28.7585 18.8014C30.2051 17.4422 32.5197 17.4422 33.9084 18.8014L37.0909 21.8594C37.1488 21.916 37.2645 22.0293 37.3224 22.0859L42.5302 17.0458C43.9189 15.6867 43.9189 13.4781 42.5302 12.1189L33.6769 3.62436C32.9826 3.00142 32.1146 2.60501 31.1309 2.60501C30.1472 2.60501 29.2793 3.00142 28.5849 3.62436L24.7659 7.24872ZM21.5833 35.7339C22.2777 36.4135 23.435 36.4135 24.1294 35.7339L24.5344 35.3375C24.8237 35.0543 24.9973 34.6579 25.0552 34.2615C24.8237 34.0916 24.5344 33.9217 24.3608 33.6952L21.1783 30.6372C21.0047 30.4673 20.8311 30.2974 20.7154 30.0708C20.3103 30.1275 19.9631 30.2974 19.6738 30.5805L19.2688 30.9769C18.5744 31.6565 18.5744 32.7325 19.2688 33.4121L21.5833 35.7339ZM25.981 33.0156C26.7332 33.3554 27.7169 33.2422 28.2956 32.6192C28.8164 32.1096 28.9899 31.3167 28.8164 30.6372C28.6428 30.5239 28.4692 30.354 28.3534 30.2407L24.4765 26.5031C24.3608 26.3899 24.3029 26.2766 24.1872 26.1633C24.0136 26.1067 23.8979 26.1067 23.7243 26.1067C23.2035 26.1067 22.6828 26.2766 22.2777 26.673C21.4676 27.4658 21.4676 28.7117 22.2777 29.5045L25.4602 32.5626C25.576 32.7891 25.7496 32.959 25.981 33.0156ZM29.9736 29.5612C29.9158 29.5045 29.8 29.4479 29.7422 29.4479C29.6264 29.3913 29.5686 29.3347 29.5107 29.2214L25.6338 25.4271C24.8237 24.6343 24.8237 23.3884 25.6338 22.5956C26.0389 22.1992 26.5596 22.0293 27.0804 22.0293C27.3119 22.0293 27.5433 22.0859 27.7748 22.1426C27.9484 22.7655 28.2377 23.3318 28.7585 23.8415L31.941 26.8995C32.2882 27.2393 32.6354 27.4658 33.0983 27.6357C33.1562 28.202 32.9247 28.7683 32.5197 29.1648C32.2882 29.3347 32.0567 29.5045 31.8253 29.6178C31.1309 29.8443 30.4944 29.7877 29.9736 29.5612ZM35.2971 26.22C35.5286 26.1067 35.7022 25.9934 35.8758 25.8236C36.6859 25.0307 36.6859 23.7849 35.8758 22.992L32.6932 19.934C32.2882 19.5376 31.7674 19.3677 31.2466 19.3677C30.7259 19.3677 30.2051 19.5376 29.8 19.934C28.9899 20.7268 28.9899 21.9727 29.8 22.7655L32.9826 25.8236C33.0404 25.8802 33.1562 25.9934 33.214 26.0501C33.7927 26.4465 34.6028 26.5031 35.2971 26.22Z" fill="#00475D"/>
</svg>
