<svg width="106" height="20" viewBox="0 0 106 20" fill="none" xmlns="http://www.w3.org/2000/svg">
<g clip-path="url(#clip0_2942_53760)">
<path d="M10.0956 19.9995C7.19229 19.9995 4.77944 19.0471 2.85708 17.1424C0.952915 15.2381 0.000551056 12.8573 2.38793e-07 9.99991C-0.000550578 7.1425 0.951813 4.77069 2.85708 2.88447C4.76071 0.961156 7.17356 -0.000226303 10.0956 0.000319318C11.7803 -0.0131233 13.4407 0.398068 14.9208 1.19523C16.3576 1.95248 17.5642 3.07618 18.4157 4.45013L14.5878 6.64844C14.168 5.90269 13.5358 5.29585 12.7702 4.90354C11.9836 4.4916 11.0915 4.28562 10.094 4.28562C8.35562 4.28562 6.97858 4.80751 5.96286 5.85128C4.94606 6.87759 4.43765 8.26048 4.43765 9.99991C4.43765 11.7393 4.94496 13.1222 5.95956 14.1485C6.97636 15.1923 8.3534 15.7142 10.0907 15.7142C11.0218 15.7258 11.9412 15.5087 12.7668 15.0824C13.5333 14.6976 14.1662 14.0949 14.5845 13.3514L18.4124 15.5497C17.576 16.927 16.3762 18.0523 14.9423 18.8046C13.4548 19.6027 11.7872 20.0138 10.0956 19.9995Z" fill="#6B4CB0"/>
<path d="M35.2529 19.6148H30.4831L26.822 13.2965H24.7127V19.6148H20.2767V0.381592H28.0432C29.8918 0.381592 31.4632 1.02243 32.7576 2.30409C34.052 3.58576 34.6992 5.14268 34.6992 6.97488C34.6995 8.12785 34.357 9.25537 33.7144 10.2168C33.0744 11.209 32.1797 12.0149 31.1217 12.5517L35.2529 19.6148ZM28.0423 4.50567H24.7127V9.45063H28.0423C28.6522 9.45063 29.1754 9.21247 29.6122 8.73614C30.049 8.25982 30.266 7.67382 30.2633 6.97815C30.2633 6.28194 30.0462 5.69567 29.6122 5.21934C29.1781 4.74302 28.6549 4.50513 28.0423 4.50567Z" fill="#6B4CB0"/>
<path d="M41.5767 11.978V15.3843H49.3432V19.6148H37.1398V0.381592H49.2027V4.61207H41.5767V7.79904H48.5087V11.9731L41.5767 11.978Z" fill="#6B4CB0"/>
<path d="M70.2649 19.6148V0.381592H74.7025V19.6148H70.2649Z" fill="#6B4CB0"/>
<path d="M76.4364 0.384644H90.8573V4.61511H85.8653V19.6145H81.4285V4.61511H76.4364V0.384644Z" fill="#6B4CB0"/>
<path d="M92.6899 4.61511V0.384644H105.448V4.06758L99.1237 19.6178H94.4092L100.511 4.61839L92.6899 4.61511Z" fill="#52CDB0"/>
<path d="M51.1031 0.398071H58.8696C61.5328 0.398071 63.7705 1.32344 65.5827 3.17419C67.3949 5.02493 68.301 7.30563 68.301 10.0162C68.301 12.7443 67.3949 15.0343 65.5827 16.8861C63.7881 18.7178 61.5504 19.6336 58.8696 19.6336H51.1031V0.398071ZM55.5415 15.4007H58.8712C60.4058 15.4007 61.6452 14.9151 62.5892 13.9438C63.5499 12.9732 64.0307 11.6637 64.0318 10.0154C64.0329 8.36714 63.5521 7.06637 62.5892 6.11317C61.6457 5.12396 60.4063 4.62936 58.8712 4.62936H55.5415V15.4007Z" fill="#6B4CB0"/>
</g>
<defs>
<clipPath id="clip0_2942_53760">
<rect width="106" height="20" fill="white"/>
</clipPath>
</defs>
</svg>
