<svg width="164" height="19" viewBox="0 0 164 19" fill="none" xmlns="http://www.w3.org/2000/svg">
<g clip-path="url(#clip0_2942_53773)">
<path d="M9.68829 6.67868C9.68829 3.6279 12.1619 1.1543 15.2127 1.1543C18.2634 1.1543 20.7371 3.6279 20.7371 6.67868C20.7371 9.72946 18.2634 12.2031 15.2127 12.2031C12.1619 12.2031 9.68829 9.72946 9.68829 6.67868Z" fill="#FDA329"/>
<path d="M30.4666 14.2644H0V18.4283H30.4666V14.2644Z" fill="#FDA329"/>
<path d="M2.06134 1.11304C1.36048 1.11304 0.659628 1.23672 0 1.5253V11.7908C2.84465 12.9451 6.06033 11.5434 7.21468 8.69876C8.36903 5.85411 6.96732 2.63843 4.12267 1.5253C3.46305 1.27794 2.76219 1.11304 2.06134 1.11304Z" fill="#FDA329"/>
<path d="M28.364 1.11304C29.0649 1.11304 29.7657 1.23672 30.4253 1.5253V11.7908C27.5807 12.9451 24.365 11.5846 23.2107 8.73999C22.0563 5.89534 23.4168 2.67965 26.2614 1.5253C26.9623 1.27794 27.6631 1.11304 28.364 1.11304Z" fill="#FDA329"/>
<path d="M53.265 3.79284C54.914 5.44191 55.7386 7.50325 55.7386 9.97686C55.7386 12.4505 54.914 14.5118 53.265 16.1609C51.6159 17.8512 49.5546 18.6757 47.0397 18.6757C43.989 18.6757 41.3092 17.1503 39.8663 14.7179L42.7109 13.0689C43.4942 14.5118 45.1433 15.4188 47.0397 15.4188C49.7607 15.4188 51.6984 13.8934 52.2755 11.461H44.8135V8.36901H52.2755C51.6984 5.93663 49.7607 4.41124 47.0397 4.41124C45.1433 4.41124 43.5355 5.27701 42.7109 6.80239L39.8663 5.15332C41.3092 2.72095 44.0302 1.19556 47.0397 1.19556C49.5546 1.27801 51.6159 2.10255 53.265 3.79284Z" fill="#004259"/>
<path d="M68.9312 18.3459H65.3444L61.0156 12.904V18.3459H57.9236V6.39014H61.0156V11.6672L65.1383 6.39014H68.8075L63.9839 12.2856L68.9312 18.3459Z" fill="#004259"/>
<path d="M70.7863 16.8617C69.5907 15.6249 69.0136 14.1407 69.0136 12.368C69.0136 10.5952 69.5907 9.11108 70.7863 7.87428C72.0231 6.63748 73.5073 6.0603 75.3213 6.0603C77.63 6.0603 79.6913 7.25588 80.6807 9.15231L78.0422 10.7189C77.5475 9.72948 76.5168 9.11108 75.3213 9.11108C73.4661 9.11108 72.1056 10.4716 72.1056 12.368C72.1056 13.3162 72.4354 14.0995 73.0126 14.7179C73.631 15.2951 74.373 15.6249 75.3213 15.6249C76.5581 15.6249 77.5887 15.0477 78.0834 14.0583L80.7632 15.5837C79.6913 17.4801 77.6712 18.6757 75.3625 18.6757C73.5073 18.6757 72.0231 18.0985 70.7863 16.8617Z" fill="#004259"/>
<path d="M93.3786 6.39014V18.3459H90.2866V9.27601H85.5455V18.3459H82.4535V6.39014H93.3786Z" fill="#004259"/>
<path d="M101.871 18.6757C100.099 18.6757 98.6144 18.0985 97.3776 16.8617C96.1408 15.6249 95.5636 14.1407 95.5636 12.368C95.5636 10.5952 96.1408 9.11108 97.3776 7.91551C98.6144 6.6787 100.099 6.0603 101.871 6.0603C103.644 6.0603 105.128 6.6787 106.365 7.91551C107.602 9.15231 108.22 10.6365 108.22 12.368C108.22 14.0995 107.602 15.6249 106.365 16.8617C105.128 18.0985 103.644 18.6757 101.871 18.6757ZM101.871 15.6661C102.82 15.6661 103.562 15.3363 104.18 14.7179C104.798 14.0995 105.128 13.3162 105.128 12.368C105.128 11.4198 104.798 10.6365 104.18 10.0181C103.562 9.39967 102.778 9.06986 101.871 9.06986C100.923 9.06986 100.181 9.39967 99.5626 10.0181C98.9854 10.6365 98.6556 11.4198 98.6556 12.368C98.6556 13.3162 98.9854 14.0995 99.5626 14.7179C100.181 15.3363 100.923 15.6661 101.871 15.6661Z" fill="#004259"/>
<path d="M111.477 16.8617C110.323 15.6249 109.746 14.0995 109.746 12.2443C109.746 10.2242 110.075 8.61634 110.653 7.54444C111.271 6.43132 112.467 5.40065 114.322 4.49366C114.569 4.36998 114.981 4.16385 115.476 3.95772L116.466 3.46299C116.672 3.38054 116.919 3.21563 117.249 3.05073C118.115 2.51478 118.362 2.10251 118.774 1.1543L121.289 2.59723C121.083 3.58668 120.629 4.32876 119.887 4.8647C119.187 5.40065 118.115 5.9366 116.63 6.47255C114.61 7.25586 113.827 7.99794 113.415 9.11106C114.281 8.20407 115.476 7.75058 117.002 7.75058C118.321 7.75058 119.516 8.2453 120.547 9.19351C121.578 10.1417 122.114 11.4198 122.114 13.0276C122.114 14.6767 121.578 15.9959 120.423 17.0678C119.31 18.1397 117.867 18.6344 116.053 18.6344C114.157 18.6757 112.673 18.0985 111.477 16.8617ZM113.91 10.9663C113.291 11.461 113.003 12.1206 113.003 12.9451C113.003 13.7697 113.291 14.4705 113.868 15.0065C114.487 15.5424 115.188 15.831 116.053 15.831C116.919 15.831 117.62 15.5837 118.197 15.0477C118.733 14.5118 119.022 13.8521 119.022 13.0276C119.022 11.4198 117.785 10.2242 116.053 10.2242C115.229 10.2242 114.528 10.4715 113.91 10.9663Z" fill="#004259"/>
<path d="M133.039 6.39012H136.131V18.3459H133.039V16.9442C132.091 18.0985 130.812 18.6757 129.122 18.6757C127.514 18.6757 126.154 18.0985 125 16.8617C123.886 15.6249 123.309 14.1407 123.309 12.368C123.309 10.5952 123.886 9.11108 125 7.91551C126.154 6.6787 127.514 6.0603 129.122 6.0603C130.812 6.0603 132.091 6.63748 133.039 7.79183V6.39012ZM129.699 15.7486C130.648 15.7486 131.431 15.4188 132.049 14.8004C132.709 14.1407 132.998 13.3574 132.998 12.368C132.998 11.3786 132.668 10.5952 132.049 9.93562C131.431 9.27599 130.648 8.9874 129.699 8.9874C128.751 8.9874 127.968 9.31722 127.349 9.93562C126.731 10.554 126.401 11.3786 126.401 12.368C126.401 13.3574 126.731 14.182 127.349 14.8004C127.968 15.4188 128.751 15.7486 129.699 15.7486Z" fill="#004259"/>
<path d="M146.767 6.39014H149.859V18.3459H146.767V13.811H142.026V18.3459H138.934V6.39014H142.026V10.9251H146.767V6.39014Z" fill="#004259"/>
<path d="M163.67 18.3459H160.083L155.713 12.904V18.3459H152.621V6.39014H155.713V11.6672L159.836 6.39014H163.505L158.723 12.2856L163.67 18.3459Z" fill="#004259"/>
</g>
<defs>
<clipPath id="clip0_2942_53773">
<rect width="164" height="18.7169" fill="white"/>
</clipPath>
</defs>
</svg>
