<svg width="147" height="34" viewBox="0 0 147 34" fill="none" xmlns="http://www.w3.org/2000/svg">
<path fill-rule="evenodd" clip-rule="evenodd" d="M58.4489 15.3182C58.9563 15.3182 59.8837 14.9827 59.8837 13.9593C59.8837 12.7518 58.8127 12.675 58.5025 12.675C58.1402 12.675 57.4509 12.7326 56.7783 13.0673L56.743 10.0511C57.8132 9.77316 58.5763 9.69788 59.4829 9.69788C62.0624 9.69788 63.2062 11.5411 63.2062 13.3445C63.2062 15.0948 62.2251 16.1526 61.264 16.5626V16.6931C62.1898 16.9932 63.4235 17.9022 63.4235 20.0241C63.4235 22.6488 61.6455 24.0982 59.357 24.0982C58.1402 24.0813 57.341 23.914 56.3784 23.3743L56.4344 20.4885C57.3234 20.8808 57.9222 20.9169 58.5225 20.9169C59.5389 20.9169 59.9373 20.1531 59.9373 19.5972C59.9373 18.8142 59.4476 18.2945 58.3767 18.2945H57.1054V15.3182H58.4489ZM94.305 16.862C94.305 20.4141 93.0539 23.9877 89.3322 23.9877C85.6098 23.9877 84.3586 20.4141 84.3586 16.862C84.3586 13.3098 85.6098 9.73625 89.3322 9.73625C93.0539 9.73625 94.305 13.3098 94.305 16.862ZM95.814 9.93976H98.4833L100.84 13.2147L103.221 9.93976H105.872V23.8196H102.729V15.3543L100.84 17.7724L98.9538 15.3543V23.8196H95.814V9.93976ZM130.327 9.93976H127.259L127.258 23.8196H130.327V18.2569H132.523V23.8196H135.59V9.9405H132.523V14.9459H130.327V9.93976ZM140.747 9.93976H137.659V23.8196H140.747L140.729 18.2385H141.455L143.233 23.8196H146.847L144.104 16.528L146.502 9.93976H143.161L141.399 14.9259H140.729L140.747 9.93976ZM116.565 23.838H119.761L120.143 21.4382H122.337L122.72 23.838H125.913L123.227 9.96047H119.269L116.565 23.838ZM121.829 18.3866L121.248 14.1628H121.248L120.649 18.3866H121.829ZM107.994 23.8196H111.734C112.551 23.8196 115.946 23.4648 115.964 19.2594C115.964 15.7296 113.333 15.1139 111.626 15.1139H111.063V13.2715H115.221V9.9405H107.994V23.8196ZM111.063 17.8853V21.0282H111.064H111.517C111.898 21.0282 112.88 20.7887 112.88 19.3362C112.88 17.903 111.898 17.8853 111.517 17.8853H111.063ZM89.3314 20.619C88.2226 20.619 87.6621 19.3001 87.6621 16.862C87.6621 14.4238 88.2226 13.1034 89.3314 13.1034C90.441 13.1034 91.0008 14.4238 91.0008 16.862C91.0008 19.3001 90.4402 20.619 89.3314 20.619ZM78.4022 23.8196H75.2609V9.93976H79.4563C82.4135 9.93976 83.5223 12.7671 83.5223 14.552C83.5223 16.3776 82.5592 19.2441 79.4563 19.2441H78.4022V23.8196ZM78.4021 12.9913H79.1467C79.8546 12.9913 80.309 13.4381 80.309 14.5911C80.309 16.0805 79.5452 16.1895 79.1467 16.1895H78.4021V12.9921V12.9913ZM73.463 9.93976H64.894V23.8196H68.0346V13.2891H70.3216V23.8196H73.463V9.93976ZM49.2807 23.8196H46.1047L48.7902 9.93976H52.7476L55.4345 23.8196H52.2586L51.8778 21.4182H49.6807L49.2807 23.8196ZM50.7695 14.1267L51.3683 18.369H50.1699L50.7687 14.1267H50.7695ZM46.466 9.93976H40.0236V23.8196H43.2171V13.3997H46.466V9.93976Z" fill="#0D356C"/>
<path fill-rule="evenodd" clip-rule="evenodd" d="M15.9418 0.708496C7.14797 0.708496 0 8.02842 0 17.0365V17.0372C0 26.0253 7.14873 33.3453 15.9411 33.3445C24.7158 33.3445 31.863 26.0253 31.863 17.0357C31.863 8.0276 24.7165 0.708496 15.9418 0.708496ZM15.9417 32.5293C7.59073 32.5293 0.796673 25.577 0.796673 17.0365C0.796673 8.47979 7.58689 1.52532 15.9417 1.52532C24.2796 1.52532 31.066 8.48208 31.066 17.0365C31.066 25.574 24.2765 32.5293 15.9417 32.5293Z" fill="#0D356C"/>
<path fill-rule="evenodd" clip-rule="evenodd" d="M9.62669 7.63477C10.1142 7.27824 10.6379 6.97383 11.189 6.72663C12.382 6.15701 14.3088 5.60425 16.7094 5.60425C16.8215 5.60425 16.9359 5.60507 17.051 5.60736C19.1031 5.64574 21.5374 6.37116 23.0252 7.87814C23.277 8.19367 23.4244 8.50994 23.4789 8.75257C24.6588 9.3667 25.3475 9.94246 25.7283 10.6119C25.8978 10.9714 25.9486 11.3755 25.8733 11.7657C26.3639 12.0613 26.6019 12.323 26.8568 12.6617C27.018 12.9396 27.1446 13.2527 27.183 13.5368C27.236 13.906 27.2721 14.3344 26.8905 14.8365C27.2905 15.043 27.616 15.6165 27.6551 15.8614C27.854 16.7695 27.2721 17.6624 26.5281 18.3525C25.6561 19.1325 23.7307 20.0637 22.17 20.4744C19.9838 21.0408 17.9696 21.3743 16.2066 21.6662H16.2065H16.2064C15.482 21.7862 14.8001 21.8991 14.166 22.0182C15.1456 22.2601 16.4707 22.5771 18.6317 22.5771C23.2601 22.5771 27.345 20.3431 27.345 20.3431C27.345 20.3431 27.2552 20.6241 27.1623 20.8851C24.222 22.7077 19.5576 23.4676 17.5584 23.3755C15.5433 23.2811 13.8375 22.9663 12.167 22.4443C11.6596 22.5947 11.1506 22.7629 10.6616 22.9663C13.2041 24.1563 15.1272 24.4181 17.2882 24.5839C19.5015 24.7528 23.1711 24.2108 26.2549 23.0608C26.1857 23.1325 26.1331 23.2203 26.0814 23.3067C26.0246 23.4015 25.9688 23.4945 25.8933 23.5629C24.3134 24.4181 20.9739 25.274 19.285 25.3485C17.6129 25.4237 15.581 25.3485 13.8014 25.0122C12.276 24.6983 11.0216 24.2108 9.7158 23.6197C9.4816 23.8016 9.3726 24.0281 9.31655 24.2891C14.4202 27.0228 19.1745 27.0781 24.6059 25.3485L24.113 25.8321C18.1396 28.3256 13.4744 27.3567 9.86006 25.5711C9.83494 25.5598 9.809 25.5485 9.78265 25.5372C9.67791 25.4916 9.56752 25.4436 9.4816 25.3853C9.82709 25.981 12.5846 28.0453 15.6707 28.3064C17.7972 28.4921 20.3921 28.1198 21.9351 27.4888L21.0277 27.9709C20.2822 28.344 18.3039 29.2008 15.5433 29.0135C11.8592 28.7524 9.78789 27.0781 8.86207 26.2052C8.42608 25.7937 8.22797 25.3301 8.10054 24.7528C7.26453 24.3067 6.73789 23.8399 6.30414 23.1329C6.04927 22.7429 6.10301 22.2793 6.15675 21.8862L6.2696 21.5545C5.8681 21.2544 5.45048 20.9381 5.28773 20.6234C4.92231 19.9539 5.14263 19.3743 5.39597 18.9291C5.17717 18.6688 4.97681 18.4093 4.8893 18.1484C4.77951 17.8505 4.76185 17.5495 4.79563 17.2163C4.86933 16.6598 5.16028 16.1408 5.54183 15.6925C6.33869 14.7428 7.61306 13.9997 9.7703 13.2742C11.4193 12.7105 12.3029 12.516 13.3612 12.2831C13.6677 12.2157 13.9887 12.1451 14.3472 12.0613C15.0563 11.893 15.8176 11.7673 16.5914 11.6394H16.5915C17.8585 11.4302 19.1594 11.2153 20.3199 10.7992C15.108 9.87028 9.69968 10.7248 5.28773 13.8293L5.57714 12.9557C9.53381 10.314 13.9104 8.75257 21.3179 10.0745C21.717 9.83117 21.9527 9.58936 22.0633 9.10648C20.2101 8.41862 18.1964 8.17681 15.6001 8.2129C13.2747 8.2881 9.08014 9.17784 6.83232 10.5397L7.51864 9.66456C9.08014 8.71337 13.1642 7.46899 16.235 7.4122C18.3937 7.3577 19.5015 7.48584 22.0809 8.19367C21.8584 7.77863 21.3846 7.55433 20.6848 7.22309L20.5363 7.15271C18.0513 6.01724 13.4198 5.9044 9.62669 7.63477ZM23.3315 9.66456C23.2601 9.9256 22.9899 10.2419 22.8072 10.4469V10.4476C23.3698 10.5965 23.951 10.8161 24.4938 11.0234C24.4224 10.5021 23.842 10.0001 23.3315 9.66456ZM23.2599 12.7153C22.989 12.6396 22.7285 12.5585 22.4674 12.4772C21.8903 12.2975 21.3103 12.117 20.6083 11.9907C21.2279 11.7466 21.6432 11.4878 22.0086 11.1892C22.8223 11.4111 23.5855 11.6921 24.2065 11.97C24.099 12.1319 23.4772 12.7215 23.2883 12.7215C23.2785 12.722 23.2687 12.7198 23.2599 12.7153ZM25.4945 12.7338C25.2941 12.9772 25.0753 13.1798 24.8404 13.3664C24.9346 13.4125 25.0268 13.4552 25.1172 13.497C25.3914 13.624 25.6489 13.7432 25.8936 13.9245C26.1286 13.4593 25.9835 13.1614 25.4945 12.7338ZM6.19648 17.981C4.90149 16.1548 9.17253 14.8292 10.2908 14.482C10.3347 14.4685 10.3736 14.4564 10.4073 14.4458C12.6757 13.7548 15.3282 13.2374 17.7249 12.9396C19.3731 12.7338 20.2475 12.9219 21.8098 13.3487C19.9097 13.8686 18.0216 14.2208 16.1592 14.5684C14.0883 14.9549 12.0493 15.3354 10.061 15.9335C7.22494 16.7774 6.32991 17.8257 6.21067 17.9654C6.2019 17.9756 6.19732 17.981 6.19648 17.981ZM12.5513 16.7334C11.4972 16.9752 8.60921 17.6624 7.19281 18.8914C7.46048 19.1169 7.66291 19.2243 7.89847 19.3493C8.01422 19.4107 8.13797 19.4764 8.2814 19.5624C8.86256 19.1709 9.66171 18.7986 10.8439 18.4799C12.7133 17.9727 14.1644 17.7282 15.8119 17.4507C15.9695 17.4242 16.129 17.3973 16.2907 17.3699C18.1232 17.0858 21.5909 16.3427 23.497 15.6349C24.1342 15.4138 24.713 15.1152 25.1299 14.7597C25.0024 14.6123 23.768 13.9997 23.7311 14.0557C22.9719 14.4273 21.8826 14.7973 20.3203 15.1904C19.7192 15.3461 18.7193 15.5302 17.4828 15.7579H17.4828H17.4827C16.0677 16.0185 14.3428 16.3361 12.5513 16.7334ZM9.82717 20.38C10.4244 20.119 11.0785 19.914 11.7119 19.7498C13.1238 19.3944 14.4618 19.1674 15.8503 18.9317H15.8503C17.6053 18.6339 19.441 18.3225 21.6097 17.7207C23.479 17.2164 24.8402 16.6759 25.6945 16.0087C25.7641 15.9461 25.8341 15.8898 25.9043 15.8335L25.9044 15.8334C25.9612 15.7877 26.0183 15.742 26.0753 15.6925C27.2008 17.4773 22.9716 18.8546 20.0827 19.4903C18.5726 19.7961 17.0594 20.0868 15.5434 20.3623C13.658 20.6786 13.0377 20.8468 11.731 21.2375C11.0785 20.9765 10.4244 20.697 9.82717 20.38ZM6.57507 19.9164C6.52807 19.8858 6.47988 19.8544 6.42944 19.8219V19.8211C6.28435 20.1589 6.57761 20.5274 6.86626 20.6963C6.94522 20.6154 7.03928 20.5409 7.12987 20.469C7.18373 20.4264 7.23636 20.3847 7.28388 20.3432C6.99753 20.1914 6.79992 20.0628 6.5751 19.9164H6.57507ZM7.93764 21.5338L7.93815 21.5333C8.36413 21.7885 8.7939 22.0371 9.22736 22.2793C9.54764 22.0775 9.88772 21.9089 10.2423 21.7764C10.0285 21.6776 9.80884 21.5796 9.58692 21.4805L9.58684 21.4805C9.26205 21.3355 8.93236 21.1883 8.60864 21.0333C8.35472 21.1997 8.12003 21.3661 7.93815 21.5333L7.93764 21.5331V21.5338ZM8.35816 22.9672C8.05933 22.8046 7.76187 22.6426 7.46441 22.4443C7.44521 22.799 7.66478 23.1153 8.11924 23.5068C8.17222 23.3187 8.2643 23.1721 8.39179 22.9856L8.35816 22.9672Z" fill="#0D356C"/>
</svg>
