<?xml version="1.0" standalone="no"?>
<!DOCTYPE svg PUBLIC "-//W3C//DTD SVG 20010904//EN"
 "http://www.w3.org/TR/2001/REC-SVG-20010904/DTD/svg10.dtd">
<svg version="1.0" xmlns="http://www.w3.org/2000/svg"
 width="1280.000000pt" height="801.000000pt" viewBox="0 0 1280.000000 801.000000"
 preserveAspectRatio="xMidYMid meet">
<metadata>
Created by potrace 1.15, written by Peter Selinger 2001-2017
</metadata>
<g transform="translate(0.000000,801.000000) scale(0.100000,-0.100000)"
fill="#9e9e9e" stroke="none">
<path d="M6325 7937 c-10 -8 -32 -38 -50 -68 -28 -48 -37 -56 -86 -71 -61 -20
-109 -65 -109 -103 0 -36 21 -83 64 -138 46 -60 46 -74 -1 -82 -392 -65 -583
-155 -660 -313 -24 -50 -28 -68 -27 -142 1 -113 28 -189 159 -455 125 -251
152 -330 156 -442 4 -96 10 -86 -142 -219 -111 -96 -139 -106 -139 -46 0 32 9
49 56 103 72 82 114 168 114 232 0 88 -47 147 -167 212 -86 46 -88 50 -69 145
27 136 16 210 -37 245 -22 14 -29 14 -59 2 -18 -8 -41 -23 -50 -33 -32 -36
-59 -114 -65 -185 -6 -68 -7 -71 -42 -88 -20 -10 -58 -22 -86 -26 -187 -26
-250 -164 -180 -393 23 -77 25 -93 16 -129 -10 -35 -17 -43 -49 -54 -20 -6
-56 -25 -80 -40 -24 -16 -56 -29 -73 -29 -28 0 -29 1 -29 48 0 27 17 114 37
193 64 248 50 384 -53 498 -82 91 -178 114 -279 67 -68 -31 -104 -63 -169
-151 -53 -69 -60 -75 -123 -96 -129 -42 -201 -93 -250 -176 -21 -36 -24 -52
-19 -89 8 -61 36 -111 95 -169 40 -39 51 -56 51 -81 0 -37 -4 -39 -95 -49 -77
-9 -141 -36 -150 -65 -4 -13 0 -40 9 -64 l16 -42 129 2 c106 2 138 6 177 23
26 12 49 19 52 16 3 -2 -9 -43 -27 -91 -53 -147 -38 -215 61 -277 28 -18 55
-31 60 -30 4 2 17 -14 27 -36 74 -144 150 -162 364 -82 73 27 143 52 157 56
22 6 22 4 -7 -15 -44 -30 -66 -82 -71 -175 l-5 -80 52 57 c35 39 75 68 119 90
59 29 76 33 147 33 83 -1 120 -10 217 -52 53 -23 63 -34 119 -117 77 -115 132
-229 159 -329 22 -80 30 -185 16 -225 -4 -12 -34 -40 -67 -63 l-60 -40 -122
113 c-101 93 -125 120 -135 154 -6 23 -26 56 -44 74 -29 30 -35 32 -88 28
-103 -7 -198 -98 -208 -197 -3 -34 0 -55 12 -74 17 -25 80 -57 114 -57 10 0
58 -40 107 -90 l89 -90 -29 -30 c-67 -70 -239 -129 -334 -115 -191 29 -228
156 -106 365 50 87 65 134 65 210 0 71 -32 137 -79 165 -19 11 -107 92 -195
181 -148 148 -168 165 -250 205 l-90 44 -145 0 c-225 0 -358 -35 -769 -201
-234 -95 -342 -130 -367 -120 -21 8 -55 -42 -55 -79 0 -37 21 -59 75 -78 l38
-13 -35 -22 c-47 -29 -194 -87 -449 -176 -510 -177 -689 -254 -747 -321 -37
-42 -39 -58 -11 -86 11 -11 19 -22 17 -24 -11 -10 -361 -143 -498 -189 -209
-69 -374 -116 -736 -211 -159 -41 -307 -82 -329 -91 -205 -80 28 -189 518
-241 l157 -16 0 -44 c0 -82 46 -133 143 -159 96 -25 287 -12 447 31 30 8 56
13 58 11 1 -2 -13 -14 -32 -26 -45 -27 -66 -57 -66 -92 0 -72 122 -93 509 -86
l274 5 76 -32 c144 -61 197 -70 401 -70 198 0 280 12 483 73 l87 26 28 -27
c15 -14 41 -31 57 -37 44 -17 165 -15 245 5 39 10 72 16 74 14 7 -8 290 -707
311 -769 12 -36 27 -102 33 -147 6 -45 20 -100 32 -122 11 -22 20 -47 20 -55
0 -8 12 -28 26 -45 17 -21 28 -49 33 -85 l7 -55 -40 -28 c-51 -36 -115 -127
-123 -176 -6 -37 -6 -37 52 -62 l57 -25 -7 -39 c-11 -67 7 -83 117 -106 21 -4
27 -11 30 -38 3 -28 7 -33 43 -41 65 -14 137 -36 175 -54 30 -15 36 -23 41
-61 6 -47 44 -91 78 -91 24 0 56 -47 64 -92 21 -131 187 -161 257 -46 31 51
27 110 -11 153 -27 31 -31 43 -34 107 -2 40 -6 85 -10 99 -5 21 0 31 32 59
106 94 290 184 458 225 l69 17 30 -39 c16 -21 59 -66 94 -100 l65 -62 30 17
c16 9 46 36 67 58 l38 41 7 -46 c10 -70 51 -184 86 -240 33 -55 43 -56 83 -12
11 12 22 21 25 21 3 0 6 -69 7 -153 1 -174 13 -224 57 -245 20 -10 27 -20 27
-41 0 -52 56 -144 132 -217 53 -52 82 -89 112 -149 31 -62 60 -100 130 -171
50 -50 101 -94 113 -98 61 -19 207 104 302 255 35 56 64 90 83 98 47 21 108
123 108 181 0 13 10 24 25 30 29 11 65 65 65 99 0 12 13 62 29 110 38 114 51
186 40 225 -17 59 -14 64 34 55 23 -4 46 -8 50 -9 20 -1 87 170 103 261 9 52
17 95 19 97 1 1 10 -10 20 -25 26 -40 126 -153 136 -153 4 0 31 39 60 88 29
48 56 92 61 99 7 9 34 -7 98 -55 129 -98 286 -189 387 -225 75 -27 102 -31
188 -32 71 0 118 6 163 19 55 17 71 28 137 98 64 66 79 77 100 72 30 -8 87 11
123 40 15 13 58 38 96 56 49 24 92 58 150 115 103 102 156 165 156 184 0 9 3
45 5 81 7 82 -11 226 -36 298 -23 66 -59 130 -101 178 -32 36 -116 99 -123 92
-2 -2 -30 -85 -61 -183 -31 -99 -58 -185 -61 -191 -2 -6 71 -42 171 -85 97
-40 176 -79 176 -86 0 -9 -10 -9 -45 2 -25 7 -51 18 -58 23 -7 5 -30 15 -52
22 -22 7 -53 21 -70 31 -16 11 -41 19 -54 19 -13 0 -36 11 -53 25 -16 14 -36
25 -45 25 -10 0 -13 5 -8 18 4 9 9 35 13 57 3 22 12 50 20 63 8 13 18 40 23
60 15 70 31 127 46 162 8 19 19 64 24 99 5 36 11 67 14 69 2 3 16 -3 29 -12
49 -32 54 -26 81 86 8 30 -15 48 -61 48 l-28 0 26 28 c54 55 40 107 -45 176
-35 28 -40 29 -69 18 -18 -6 -33 -10 -35 -8 -3 2 11 35 30 72 19 38 45 97 57
132 13 35 28 61 34 58 239 -99 467 -156 626 -156 83 0 138 20 154 56 l9 20
101 -22 c234 -53 406 -77 566 -78 190 -1 256 14 328 78 l47 42 220 -9 c222 -9
450 1 526 23 49 14 89 47 89 73 0 12 -22 41 -52 71 -28 27 -43 46 -32 42 106
-41 342 -71 445 -56 134 19 190 64 197 159 l4 58 92 6 c190 13 460 64 573 108
65 26 88 50 79 84 -10 38 -55 55 -383 141 -563 147 -914 259 -1190 379 l-63
27 20 26 c26 32 25 44 -5 80 -53 63 -230 140 -705 307 -167 59 -336 123 -374
142 -90 46 -149 85 -138 92 25 17 32 51 18 86 -16 38 -14 37 -100 54 -33 6
-170 55 -305 110 -401 161 -533 198 -742 208 -111 5 -135 3 -196 -16 -103 -31
-180 -88 -348 -256 -82 -82 -164 -157 -181 -166 -47 -25 -69 -80 -69 -175 0
-72 4 -87 33 -140 122 -223 131 -302 42 -377 -92 -78 -320 -45 -443 63 l-37
32 69 77 c54 60 79 80 119 94 116 40 145 149 65 238 -47 52 -101 79 -158 79
-78 0 -120 -34 -138 -111 -6 -23 -227 -239 -246 -239 -3 0 -28 15 -56 32 -59
40 -70 70 -62 178 10 131 75 288 187 452 56 82 57 83 141 118 76 31 93 34 184
35 91 0 105 -3 154 -29 30 -15 79 -53 108 -84 l53 -55 0 72 c0 84 -15 127 -59
164 -18 15 -28 27 -22 27 6 0 71 -22 145 -50 168 -62 202 -68 262 -45 48 18
118 95 130 141 3 13 10 21 16 18 5 -3 34 11 65 31 40 27 60 48 75 82 23 52 20
82 -17 183 -13 36 -26 75 -30 88 l-7 23 44 -22 c28 -14 66 -23 111 -25 37 -2
98 -6 136 -8 l69 -3 16 34 c43 91 1 127 -177 148 -81 10 -77 55 12 144 87 86
105 170 53 252 -50 78 -96 109 -235 159 -63 23 -87 37 -100 59 -56 95 -164
189 -241 211 -136 38 -285 -84 -326 -266 -15 -65 -5 -150 36 -314 19 -74 34
-160 34 -192 l0 -57 -37 6 c-21 3 -48 14 -59 25 -12 10 -43 27 -70 37 -42 16
-50 24 -62 60 -12 37 -11 46 14 118 21 60 27 98 28 163 1 76 -2 90 -27 132
-35 60 -94 96 -178 108 -132 18 -133 19 -140 78 -16 128 -83 232 -149 232 -74
0 -88 -115 -38 -319 3 -14 1 -16 -85 -58 -201 -98 -219 -240 -53 -435 42 -50
55 -73 58 -104 2 -33 0 -39 -17 -42 -36 -5 -275 221 -275 260 0 31 61 180 131
319 162 325 214 486 207 644 -11 258 -192 388 -593 429 -139 13 -143 17 -96
92 77 127 60 201 -51 228 -19 4 -37 24 -63 66 -20 33 -46 67 -58 75 -27 19
-77 19 -102 2z m2002 -1602 c131 -65 171 -129 158 -249 -4 -33 -24 -133 -45
-223 -44 -188 -43 -200 19 -292 51 -75 71 -128 71 -191 0 -48 0 -48 -45 -65
-39 -15 -71 -17 -242 -12 -205 6 -393 24 -393 38 0 4 30 23 68 40 95 46 198
52 299 16 86 -30 83 -33 91 106 6 113 -9 166 -65 228 l-34 37 21 35 c35 58 36
149 6 324 -29 169 -31 196 -16 224 15 26 27 24 107 -16z m-3809 -24 c2 -24 -6
-98 -17 -165 -11 -67 -23 -144 -26 -173 -8 -62 9 -153 35 -186 19 -24 19 -24
-11 -53 -48 -45 -72 -101 -77 -179 -4 -68 12 -185 26 -185 4 0 30 9 58 19 74
28 141 35 210 21 55 -12 181 -66 172 -75 -12 -13 -287 -37 -428 -38 -237 -3
-271 12 -255 111 10 56 25 91 72 162 23 36 45 79 49 96 4 21 -8 92 -35 206
-48 203 -54 302 -22 355 34 54 170 136 221 131 22 -3 25 -8 28 -47z m1945
-395 c83 -35 158 -113 329 -346 78 -107 84 -117 76 -147 -13 -51 -94 -126
-183 -168 l-79 -39 49 -15 c38 -12 52 -22 59 -44 17 -48 -9 -133 -91 -295
l-78 -152 -178 -3 -178 -2 -52 100 c-123 236 -147 312 -112 362 9 12 31 25 50
29 20 3 37 10 40 14 2 4 -21 19 -53 33 -32 15 -77 40 -101 57 -49 36 -101 113
-101 150 0 76 273 385 397 449 66 34 150 41 206 17z m-2517 -3022 c43 -86 87
-162 98 -170 33 -22 63 -16 104 20 l38 35 90 -162 c50 -89 103 -170 117 -181
24 -18 27 -18 51 -2 15 9 43 53 68 103 l42 88 62 -132 c35 -73 73 -138 85
-147 39 -27 61 4 128 187 l11 28 59 -69 c86 -100 191 -162 231 -137 6 4 4 -8
-6 -26 -28 -53 -24 -133 9 -200 26 -53 27 -60 17 -125 -5 -38 -10 -116 -10
-174 l0 -105 -59 -33 c-80 -44 -179 -80 -281 -103 -114 -25 -130 -25 -130 4 0
37 -45 121 -85 160 -21 20 -61 48 -89 61 -44 21 -79 30 -193 52 -18 3 -23 11
-23 37 0 18 -7 42 -15 53 -8 12 -24 47 -35 78 -13 34 -38 72 -64 98 -29 30
-77 108 -153 253 -216 408 -313 600 -306 602 5 2 35 16 68 32 33 16 68 30 77
30 12 1 39 -44 94 -155z m4574 -121 c-36 -41 -67 -107 -76 -163 -5 -31 -3 -40
14 -49 23 -12 67 -2 119 29 26 15 34 17 30 6 -3 -8 -9 -31 -13 -50 l-6 -36 46
0 c56 0 57 -7 16 -85 -16 -31 -30 -65 -30 -76 0 -10 -9 -33 -20 -51 -11 -18
-20 -45 -20 -60 0 -14 -7 -39 -14 -55 -20 -37 -47 -120 -53 -161 -5 -29 -8
-33 -27 -27 -11 4 -37 9 -56 12 -19 3 -44 12 -55 19 -11 8 -40 14 -65 14 -25
0 -54 7 -64 15 -11 8 -36 15 -56 15 -46 0 -115 34 -97 47 8 6 73 -6 192 -38
99 -26 183 -44 186 -41 8 8 129 359 129 373 0 13 -128 11 -192 -2 -133 -28
-244 -115 -350 -274 l-60 -90 5 -113 5 -113 -29 -29 c-34 -33 -38 -81 -14
-150 8 -23 15 -68 15 -100 l0 -57 -44 7 c-60 9 -78 22 -197 149 l-103 110 -1
93 c-1 94 -17 153 -55 206 -15 23 -15 27 12 79 61 120 20 230 -96 257 -29 7
-29 7 -10 27 20 20 21 19 92 -22 51 -29 78 -39 94 -35 15 4 54 51 107 126 46
66 88 120 92 120 4 0 17 -30 30 -67 12 -38 32 -89 45 -114 37 -74 64 -74 118
0 44 60 61 102 96 235 16 59 31 110 33 112 2 2 11 -33 21 -79 37 -183 68 -247
110 -231 39 15 125 197 171 363 l18 63 19 -36 19 -37 -31 -36z m160 -158 c0
-2 -13 -3 -30 -3 -24 1 -28 4 -19 14 8 10 16 11 30 3 10 -5 19 -11 19 -14z
m-3475 -215 c-3 -5 -11 -10 -16 -10 -6 0 -7 5 -4 10 3 6 11 10 16 10 6 0 7 -4
4 -10z m2040 -300 c3 -5 1 -10 -4 -10 -6 0 -11 5 -11 10 0 6 2 10 4 10 3 0 8
-4 11 -10z m888 -185 c20 -8 50 -15 67 -15 17 0 41 -7 54 -15 13 -9 39 -17 57
-19 19 -1 48 -10 66 -19 18 -10 42 -17 55 -17 12 0 45 -8 73 -19 96 -36 120
-44 154 -49 19 -2 50 -15 69 -28 19 -13 40 -24 46 -24 6 0 33 -11 60 -25 27
-14 56 -25 64 -25 8 0 30 -9 49 -21 26 -16 31 -24 23 -34 -9 -11 -31 -5 -113
31 -216 95 -531 201 -739 250 -49 11 -78 23 -78 31 0 18 49 17 93 -2z"/>
</g>
</svg>
