<svg width="135" height="26" viewBox="0 0 135 26" fill="none" xmlns="http://www.w3.org/2000/svg">
<path d="M8.85065 17.7493C9.0931 18.5215 9.39103 19.0493 9.75375 19.3334C10.1622 19.6702 10.6712 19.8384 11.283 19.8384C11.9774 19.8384 12.5344 19.6379 12.9515 19.2317C13.1272 19.0491 13.2686 18.8354 13.3685 18.601C13.4775 18.354 13.635 17.8967 13.8406 17.2297L16.5212 8.16952L17.9818 17.2388C18.1129 18.0798 18.3049 18.6723 18.5644 19.0202C18.9617 19.5654 19.5335 19.838 20.2737 19.838C20.7912 19.838 21.2598 19.6698 21.6772 19.333C22.1862 18.8977 22.4406 18.3351 22.4406 17.6378C22.4406 17.4003 22.3972 17.0205 22.3029 16.497L19.8706 2.31321C19.7701 1.69236 19.4621 1.16133 18.9531 0.71697C18.3875 0.249758 17.7385 0.0145758 17.0069 0.0145758C16.3668 0.0145758 15.8035 0.197364 15.3144 0.563727C14.7573 0.975788 14.3628 1.55921 14.1316 2.31361L11.1996 11.8119L8.00418 1.88933C7.82767 1.33545 7.51888 0.891485 7.07315 0.563333C6.57272 0.188697 5.97879 0 5.29409 0C4.4806 0 3.78931 0.249758 3.22371 0.748485C2.78884 1.13179 2.50565 1.72388 2.3753 2.52476L0.125302 16.5364C0.0422845 17.0355 0 17.3979 0 17.6245C0 18.3501 0.259526 18.9189 0.777414 19.3483C1.18319 19.6741 1.64328 19.8388 2.15185 19.8388C2.90328 19.8388 3.46888 19.5662 3.84905 19.021C4.0981 18.6668 4.28664 18.0684 4.41815 17.2396L5.83526 8.1703L8.85065 17.7493ZM24.7779 6.94239C23.535 8.29715 22.9151 10.0683 22.9151 12.2586C22.9151 14.38 23.5354 16.1358 24.7779 17.5236C25.4279 18.2516 26.2231 18.8307 27.1106 19.2223C27.9924 19.6291 28.9499 19.8392 29.9184 19.8384C30.7971 19.8384 31.6653 19.6584 32.5168 19.3042C33.506 18.8981 34.3509 18.3068 35.0465 17.5232C36.2871 16.1354 36.9093 14.3682 36.9093 12.2318C36.9093 10.0904 36.2871 8.32355 35.0465 6.94161C34.4064 6.2337 33.6344 5.6743 32.7259 5.25673C31.8173 4.83639 30.9107 4.62564 30.0022 4.62564C27.9361 4.62642 26.1931 5.39815 24.7779 6.94239ZM31.8224 9.48173C32.471 10.1695 32.7969 11.089 32.7969 12.2476C32.7969 13.3935 32.4714 14.3075 31.8224 14.9866C31.2568 15.585 30.5996 15.8864 29.8505 15.8864C29.0052 15.8864 28.3073 15.4917 27.7503 14.7022C27.2871 14.0459 27.0559 13.219 27.0559 12.2322C27.0559 11.2426 27.2871 10.4272 27.7503 9.77758C28.3159 8.9763 29.0048 8.57842 29.8195 8.57842C30.5996 8.57803 31.2657 8.88058 31.8224 9.48173ZM42.2453 5.17715C41.8911 4.86673 41.4562 4.71309 40.9391 4.71309C40.3161 4.71309 39.8021 4.93921 39.3959 5.38909C39.0053 5.82164 38.8129 6.4283 38.8129 7.20909V16.9165C38.8129 17.7233 38.9044 18.3205 39.0903 18.6979C39.2474 19.006 39.4945 19.2558 39.832 19.459C40.1691 19.656 40.5272 19.7521 40.8965 19.7521C41.2698 19.7522 41.6363 19.6511 41.9582 19.459C42.2957 19.2558 42.5452 19.0064 42.7027 18.6979C42.8881 18.3099 42.9828 17.7174 42.9828 16.9165V10.7955C42.9828 10.1664 43.1709 9.60897 43.5515 9.12758C44.003 8.56424 44.6004 8.28258 45.341 8.28258C46.0556 8.28258 46.6386 8.54455 47.0952 9.07203C47.4925 9.53333 47.6926 10.1695 47.6926 10.9791V16.9165C47.6926 17.7233 47.7838 18.3205 47.9677 18.6979C48.1271 19.006 48.3742 19.2558 48.7141 19.459C49.0515 19.656 49.4046 19.7521 49.7739 19.7521C50.1475 19.7521 50.502 19.6544 50.8461 19.4508C51.1902 19.2483 51.4338 19.0001 51.5824 18.6979C51.7678 18.3205 51.8594 17.7229 51.8594 16.9165V9.97494C51.8594 9.09212 51.7822 8.37633 51.6251 7.8327C51.4307 7.13385 51.0021 6.49488 50.3449 5.91185C49.3925 5.05582 48.1872 4.62642 46.7325 4.62642C45.8981 4.62642 45.1525 4.76548 44.4949 5.03533C44.0119 5.24373 43.4719 5.63018 42.8687 6.19352C42.6829 5.71449 42.4765 5.37491 42.2453 5.17715ZM65.8517 13.6472C67.0659 13.6472 67.6718 13.0882 67.6718 11.9801C67.6718 11.3766 67.6059 10.7731 67.4659 10.1747C67.0655 8.48033 66.2602 7.13897 65.0475 6.15018C63.7875 5.13421 62.3475 4.62642 60.7271 4.62642C58.8724 4.62642 57.2718 5.26461 55.9175 6.5327C54.3515 8.00997 53.5713 9.98439 53.5713 12.4619C53.5713 14.2823 54.0974 15.8482 55.1545 17.1431C56.6178 18.9371 58.6218 19.8392 61.1705 19.8392C62.8739 19.8392 64.3997 19.4476 65.7434 18.6696C66.8634 18.02 67.4243 17.2995 67.4243 16.4982C67.4243 16.1385 67.2866 15.7788 67.0065 15.42C66.6721 14.9839 66.266 14.755 65.7842 14.755C65.4319 14.755 65.1119 14.8326 64.826 14.9721C63.8802 15.4369 63.3309 15.7064 63.1738 15.7706C62.5678 16.0199 61.9708 16.1413 61.3796 16.1413C60.5646 16.1413 59.8861 15.9348 59.343 15.5299C58.8003 15.121 58.3762 14.4899 58.0725 13.6472H65.8517ZM57.9208 10.7498C58.1866 9.93436 58.4981 9.33636 58.8499 8.95897C59.3984 8.38461 60.0587 8.10018 60.8361 8.10018C61.745 8.10018 62.448 8.4693 62.9511 9.21464C63.1819 9.55106 63.3856 10.0652 63.5598 10.7498H57.9208ZM72.2875 6.70091C71.9903 5.94927 71.6873 5.43321 71.3844 5.14918C71.041 4.85018 70.6096 4.69812 70.0925 4.69812C69.6464 4.69812 69.2488 4.81827 68.8954 5.06449C68.2945 5.48797 67.9923 6.04224 67.9923 6.72967C67.9923 7.10706 68.1319 7.63258 68.412 8.30858L72.5388 18.2165L70.8983 22.1256C70.6096 22.8044 70.4665 23.3354 70.4665 23.7195C70.4665 24.3041 70.7016 24.804 71.1756 25.2165C71.5547 25.5565 72.0447 25.7416 72.5505 25.7357C73.2367 25.7357 73.7794 25.4678 74.1771 24.9175C74.3361 24.6917 74.525 24.3159 74.7481 23.7719L81.1098 8.36727C81.398 7.68142 81.5415 7.14252 81.5415 6.75921C81.5415 6.14624 81.2944 5.62979 80.8037 5.2063C80.4061 4.86673 79.9433 4.69773 79.4172 4.69773C78.8866 4.69773 78.449 4.85215 78.0975 5.16573C77.7809 5.44661 77.4745 5.97212 77.1777 6.74424L74.733 12.9835L72.2875 6.70091Z" fill="#92C83E"/>
<path fill-rule="evenodd" clip-rule="evenodd" d="M133.797 19.4512C133.476 19.6471 133.108 19.7513 132.732 19.7528C132.357 19.7542 131.988 19.6529 131.665 19.4595C131.324 19.2562 131.077 19.0068 130.925 18.6984C130.732 18.321 130.645 17.7234 130.645 16.917V10.9795C130.645 10.17 130.443 9.53376 130.042 9.07246C129.59 8.54498 129.007 8.28301 128.298 8.28301C127.55 8.28301 126.953 8.56467 126.501 9.12801C126.118 9.6094 125.933 10.1668 125.933 10.7959V16.917C125.933 17.7179 125.841 18.3103 125.652 18.6984C125.496 19.0064 125.248 19.2562 124.908 19.4595C124.573 19.6564 124.218 19.7526 123.846 19.7526C123.475 19.7526 123.124 19.6564 122.784 19.4595C122.444 19.2562 122.195 19.0068 122.04 18.6984C121.852 18.321 121.765 17.7234 121.765 16.917V7.20952C121.765 6.42873 121.959 5.82207 122.343 5.38952C122.754 4.93964 123.266 4.71352 123.889 4.71352C124.409 4.71352 124.842 4.86716 125.198 5.17758C125.427 5.37534 125.635 5.71492 125.818 6.19355C126.424 5.63022 126.964 5.24377 127.444 5.03537C128.102 4.76552 128.847 4.62646 129.682 4.62646C131.14 4.62646 132.34 5.05586 133.295 5.91189C133.951 6.49531 134.379 7.13389 134.575 7.83273C134.734 8.37598 134.812 9.09216 134.812 9.97498V16.9166C134.812 17.7234 134.72 18.3206 134.536 18.698C134.389 19.0009 134.14 19.2491 133.797 19.4512ZM117.205 19.7526C116.233 19.7526 115.536 19.1975 115.118 18.072C114.645 18.6586 114.233 19.0639 113.872 19.2909C113.266 19.6564 112.532 19.8392 111.657 19.8392C110.114 19.8392 108.734 19.3019 107.535 18.2174C105.882 16.7369 105.059 14.7204 105.059 12.1633C105.059 9.88595 105.782 8.01592 107.239 6.5477C108.52 5.26819 109.98 4.62686 111.62 4.62686C112.54 4.62686 113.333 4.84431 114.023 5.27646C114.316 5.47383 114.698 5.81301 115.167 6.29283C115.396 5.73855 115.658 5.35289 115.939 5.13464C116.321 4.85337 116.748 4.71392 117.233 4.71392C117.765 4.71392 118.248 4.90971 118.664 5.30561C119.093 5.71846 119.304 6.24634 119.304 6.88452V17.2538C119.304 18.0373 119.093 18.659 118.664 19.1222C118.276 19.5406 117.793 19.7526 117.205 19.7526ZM114.132 9.49634C113.578 8.88337 112.892 8.57846 112.081 8.57846C111.235 8.57846 110.541 8.91843 110.008 9.59482C109.489 10.274 109.226 11.1529 109.226 12.2326C109.226 13.3065 109.489 14.1826 110.008 14.8559C110.541 15.5465 111.252 15.8864 112.132 15.8864C112.904 15.8864 113.561 15.5823 114.105 14.9721C114.721 14.2823 115.025 13.3676 115.025 12.2185C115.025 11.052 114.726 10.1436 114.132 9.49634ZM102.044 19.8392C101.301 19.8392 100.738 19.5666 100.333 19.0214C100.08 18.6732 99.881 18.0807 99.7546 17.24L98.294 8.17073L95.6103 17.2309C95.4051 17.8979 95.2507 18.3552 95.1413 18.6022C95.0276 18.8544 94.8907 19.0643 94.7192 19.2329C94.3018 19.6391 93.7479 19.8396 93.0558 19.8396C92.444 19.8396 91.9347 19.6714 91.5293 19.3346C91.1646 19.0502 90.864 18.5223 90.6238 17.7506L87.6085 8.17113L86.189 17.2404C86.0598 18.0693 85.8694 18.6676 85.6223 19.0218C85.2401 19.567 84.6765 19.8396 83.9243 19.8396C83.4138 19.8396 82.9564 19.6749 82.5502 19.3492C82.03 18.9198 81.7709 18.3509 81.7709 17.6253C81.7709 17.3988 81.8128 17.0363 81.8954 16.5372L84.1454 2.52558C84.2769 1.7251 84.5597 1.13261 84.9957 0.749705C85.5594 0.250584 86.2476 0.0012207 87.0634 0.0012207C87.7535 0.0012207 88.3432 0.189918 88.8409 0.564554C89.2863 0.892706 89.5974 1.33668 89.7747 1.89055L92.9704 11.8127L95.9005 2.31443C96.134 1.56004 96.5254 0.976615 97.0798 0.564554C97.5717 0.198584 98.1419 0.0154025 98.7824 0.0154025C99.5086 0.0154025 100.161 0.250978 100.726 0.717796C101.235 1.16216 101.543 1.69319 101.641 2.31404L104.073 16.499C104.17 17.0222 104.215 17.4023 104.215 17.6399C104.215 18.3371 103.956 18.8993 103.447 19.335C103.052 19.6644 102.555 19.8428 102.044 19.8392Z" fill="#4D4D4D"/>
</svg>
