<svg width="132" height="26" viewBox="0 0 132 26" fill="none" xmlns="http://www.w3.org/2000/svg">
<path d="M13.5884 0.284546C6.57848 0.284546 0.912109 5.95089 0.912109 12.9609C0.912109 19.9709 6.57848 25.6372 13.5884 25.6372C20.5984 25.6372 26.2648 19.9709 26.2648 12.9609C26.2063 5.95089 20.54 0.284546 13.5884 0.284546ZM11.7775 18.3352L10.8429 21.0807C7.3379 19.9124 5.00125 16.5826 5.00125 12.8441C5.00125 9.10538 7.3379 5.83407 10.9013 4.60733L11.836 7.3529C9.4993 8.11235 7.98047 10.3321 7.98047 12.7856C7.92206 15.4144 9.44085 17.5757 11.7775 18.3352ZM16.1004 21.1976L15.2241 18.3936C17.6191 17.6342 19.1964 15.4144 19.1964 12.9024C19.1964 10.3906 17.6191 8.22918 15.2825 7.46972L16.2172 4.66578C19.7806 5.83407 22.1756 9.16383 22.1756 12.9024C22.1756 16.6995 19.7221 20.0292 16.1004 21.1976Z" fill="#00BEF0"/>
<path d="M129.602 15.2387L131.004 16.9328C129.544 18.4517 127.733 18.8606 126.273 18.8606C124.87 18.8606 123.877 18.6269 123.001 18.2179C121.132 17.2833 120.197 15.414 120.197 13.1358C120.197 9.6892 122.534 7.1189 125.98 7.1189C129.836 7.1189 131.705 9.98129 131.413 13.7199H122.651C122.709 14.6546 123.235 15.5308 123.994 15.9982C124.637 16.4071 125.397 16.5823 126.39 16.5823C127.499 16.5823 128.609 16.2318 129.602 15.2387ZM122.767 11.6753H128.96C128.784 10.3318 127.674 9.16347 125.922 9.16347C124.053 9.22184 122.943 10.4486 122.767 11.6753ZM63.884 18.5685H67.0385L62.0731 12.7852L66.9801 7.35254H63.884L60.1454 11.6753H59.0355V7.35254H56.6404V18.51H59.0355V14.0704H60.1454L63.884 18.5685ZM74.224 9.39711C72.1792 9.39711 70.8356 10.9744 70.8356 12.9605C70.8356 14.9466 72.1792 16.5239 74.224 16.5239C76.2682 16.5239 77.5534 15.0051 77.5534 12.9605C77.5534 10.9744 76.327 9.39711 74.224 9.39711ZM74.6325 7.1189C77.7868 7.1189 80.1239 9.57238 80.1239 12.9605C80.1239 16.2903 77.8457 18.8606 74.6325 18.8606C73.1138 18.8606 71.8871 18.3348 71.0108 17.4001V23.2417H68.5573V7.35254H70.9524V8.6961C71.8871 7.58618 73.0554 7.1189 74.6325 7.1189ZM106.411 7.35254H96.4216V9.57238H100.219V18.51H102.673V9.63075H106.47V7.35254H106.411ZM54.9463 7.35254H44.9571V9.57238H48.7542V18.51H51.2077V9.63075H55.0048V7.35254H54.9463ZM41.9779 12.9605C41.9779 10.8575 40.5175 9.33873 38.473 9.33873C36.4868 9.33873 34.968 10.8575 34.968 12.9605C34.968 15.0635 36.4284 16.5823 38.473 16.5823C40.4591 16.5823 41.9779 15.0635 41.9779 12.9605ZM32.5145 12.9605C32.5145 9.63075 35.0848 7.1189 38.5313 7.1189C41.9195 7.1189 44.5482 9.63075 44.5482 12.9605C44.5482 16.2903 41.9779 18.8606 38.5313 18.8606C35.0848 18.8606 32.5145 16.2903 32.5145 12.9605ZM118.27 7.35254V18.51H115.874V11.3249L110.033 18.51H108.105V7.35254H110.5V14.5962L116.342 7.41099H118.27V7.35254ZM94.7859 18.5685H92.3914V7.35254H94.7859V18.5685ZM88.5356 14.713C88.5356 13.7199 87.8348 13.0189 86.8999 13.0189H84.4464V16.4655H86.8999C87.8348 16.4655 88.5356 15.7645 88.5356 14.713ZM90.9891 14.713C90.9891 16.9328 89.3534 18.51 87.017 18.51H82.0518V7.35254H84.4464V10.9743H87.1922C89.5286 10.9743 90.9891 12.4932 90.9891 14.713Z" fill="black"/>
</svg>
