<svg width="160" height="23" viewBox="0 0 160 23" fill="none" xmlns="http://www.w3.org/2000/svg">
<path d="M72.115 8.24024L75.4324 5.79553H64.329V20.4807H75.4324V18.036H67.4973V14.2763H74.2665V11.8317H67.4973V8.24024H72.115Z" fill="#21A038"/>
<path d="M55.9467 11.5192H52.1005V8.24024H58.2569L61.5742 5.79553H48.9227V20.4807H55.5285C59.24 20.4807 61.3674 18.7979 61.3674 15.8677C61.3771 13.0624 59.4492 11.5192 55.9467 11.5192ZM55.3962 18.0288H52.0909V13.9638H55.3962C57.4058 13.9638 58.3434 14.6466 58.3434 15.9999C58.3434 17.3533 57.353 18.0288 55.3962 18.0288Z" fill="#21A038"/>
<path d="M84.4284 5.79553H78.3828V20.4807H81.5511V16.3196H84.4356C88.2817 16.3196 90.6853 14.2931 90.6853 11.0504C90.6853 7.80762 88.2871 5.79553 84.4284 5.79553ZM84.3612 13.8749H81.5511V8.24024H84.3612C86.3924 8.24024 87.5102 9.24033 87.5102 11.0576C87.5102 12.8749 86.3924 13.8749 84.3612 13.8749Z" fill="#21A038"/>
<path d="M43.483 17.3077C42.6436 17.7635 41.7026 17.9991 40.7474 17.9927C37.8916 17.9927 35.817 15.9542 35.817 13.1442C35.817 10.3342 37.8916 8.29567 40.7474 8.29567C41.7805 8.28082 42.7913 8.59664 43.6321 9.19709L45.9061 7.51442L45.7546 7.38216C44.4277 6.21629 42.6537 5.59851 40.6272 5.59851C38.4277 5.59851 36.4324 6.34127 35.0071 7.68749C34.2882 8.38189 33.7201 9.21682 33.3378 10.1403C32.9558 11.0638 32.7679 12.056 32.7858 13.0552C32.769 14.0663 32.9562 15.0705 33.3362 16.0077C33.7162 16.9448 34.2811 17.7957 34.9974 18.5096C36.5106 19.9386 38.5247 20.7155 40.6055 20.6731C42.8893 20.6731 44.8844 19.8774 46.2354 18.4278L44.1849 16.9158L43.483 17.3077Z" fill="#21A038"/>
<path d="M128.846 5.8149V20.5H132.015V14.4904H138.77V20.5H141.935V5.8149H138.765V11.8365H132.01V5.8149H128.846ZM123.4 20.5H126.732L120.54 5.8125H117.308L110.974 20.5H114.183L115.464 17.5481H122.196L123.4 20.5ZM116.414 15.0865L118.868 9.19232L121.176 15.0865H116.414ZM149.073 14.5769H151.045L155.907 20.5H159.993L153.503 12.9039L159.166 5.8149H155.529L150.808 12.1082H149.061V5.8149H145.897V20.5H149.068L149.073 14.5769ZM100.496 11.5385V8.25961H108.782V5.8149H97.3271V20.5H103.942C107.653 20.5 109.784 18.8172 109.784 15.887C109.784 13.0817 107.861 11.5385 104.351 11.5385H100.496ZM100.496 18.0553V13.9832H103.801C105.812 13.9832 106.748 14.6634 106.748 16.0192C106.748 17.375 105.758 18.0553 103.801 18.0553H100.496Z" fill="#21A038"/>
<path d="M22.8949 5.67773C23.4745 6.4268 23.965 7.24076 24.3564 8.10325L13.2386 16.298L8.59192 13.3845V9.88209L13.2386 12.7932L22.8949 5.67773Z" fill="#21A038"/>
<path d="M3.0624 13.1642C3.0624 12.9943 3.06678 12.8262 3.07556 12.658L0.0166755 12.5065C0.00614219 12.7242 0 12.9438 0 13.1642C0 16.7995 1.48381 20.0909 3.88372 22.4728L6.05282 20.3192C4.20575 18.4863 3.0624 15.9554 3.0624 13.1642Z" fill="url(#paint0_linear_2942_53794)"/>
<path d="M26.5194 13.1645C26.5194 12.3596 26.4466 11.5711 26.307 10.8064L23.4527 12.8946C23.4553 12.9844 23.4561 13.074 23.4561 13.1645C23.4561 16.137 22.1592 18.8142 20.0972 20.668L22.1549 22.9262C24.8355 20.5182 26.5194 17.037 26.5194 13.1645Z" fill="#21A038"/>
<path d="M13.2587 3.04124C13.4298 3.04124 13.5991 3.04738 13.7685 3.0552L13.9212 0.0165337C13.7018 0.00613374 13.4806 0 13.2587 0C9.59689 0 6.28186 1.47315 3.88281 3.85582L6.05193 6.00933C7.89814 4.17644 10.4481 3.04124 13.2587 3.04124Z" fill="url(#paint1_linear_2942_53794)"/>
<path d="M23.7511 5.11658C24.3776 5.91978 24.9129 6.79702 25.3402 7.73355L13.2582 16.5734L8.21094 13.432V9.65275L13.2582 12.7943L23.7511 5.11658Z" fill="#21A038"/>
<path d="M6.42137 5.66039L4.3637 3.40234C1.68388 5.81114 0 9.29239 0 13.1639H3.06328C3.0624 10.1914 4.35932 7.51434 6.42137 5.66039Z" fill="url(#paint2_linear_2942_53794)"/>
<path d="M19.0071 4.808L21.586 2.92107C19.3098 1.09511 16.4134 0 13.2588 0V3.04124C15.3902 3.04124 17.3698 3.69378 19.0071 4.808Z" fill="url(#paint3_linear_2942_53794)"/>
<defs>
<linearGradient id="paint0_linear_2942_53794" x1="4.50282" y1="22.0925" x2="1.19875" y2="12.4728" gradientUnits="userSpaceOnUse">
<stop offset="0.1444" stop-color="#F2E913"/>
<stop offset="0.3037" stop-color="#E7E518"/>
<stop offset="0.5823" stop-color="#CADB26"/>
<stop offset="0.891" stop-color="#A3CD39"/>
</linearGradient>
<linearGradient id="paint1_linear_2942_53794" x1="4.75784" y1="4.3944" x2="13.3622" y2="1.09173" gradientUnits="userSpaceOnUse">
<stop offset="0.0592" stop-color="#0FA8E0"/>
<stop offset="0.5385" stop-color="#0099F9"/>
<stop offset="0.9234" stop-color="#0291EB"/>
</linearGradient>
<linearGradient id="paint2_linear_2942_53794" x1="1.14021" y1="13.5328" x2="4.73626" y2="4.11043" gradientUnits="userSpaceOnUse">
<stop offset="0.0698" stop-color="#A3CD39"/>
<stop offset="0.2599" stop-color="#81C55F"/>
<stop offset="0.9216" stop-color="#0FA8E0"/>
</linearGradient>
<linearGradient id="paint3_linear_2942_53794" x1="12.618" y1="1.01956" x2="20.9417" y2="3.6064" gradientUnits="userSpaceOnUse">
<stop offset="0.0566" stop-color="#0291EB"/>
<stop offset="0.79" stop-color="#0C8ACB"/>
</linearGradient>
</defs>
</svg>
