<svg width="167" height="22" viewBox="0 0 167 22" fill="none" xmlns="http://www.w3.org/2000/svg">
<path d="M0.910156 10.6182C0.911887 12.0038 1.18971 13.3752 1.72739 14.6524C2.26508 15.9295 3.05184 17.0867 4.04173 18.0563C6.05994 20.0345 8.77411 21.1414 11.6002 21.1387H12.0292V17.1381H11.6002C9.87475 17.1015 8.2305 16.3984 7.01209 15.1762C5.80447 13.9661 5.12624 12.3263 5.12624 10.6168C5.12624 8.90716 5.80447 7.26749 7.01209 6.05737C8.2305 4.83518 9.87475 4.13201 11.6002 4.09533H12.0292V0.097539H11.6002C8.77411 0.0948664 6.05994 1.20168 4.04173 3.17993C3.05184 4.14962 2.26508 5.30675 1.72739 6.58387C1.18971 7.86099 0.911887 9.23248 0.910156 10.6182Z" fill="#FC5055"/>
<path fill-rule="evenodd" clip-rule="evenodd" d="M13.7354 5.77259V0.307373C16.1317 0.78908 18.2913 2.07523 19.8564 3.95266C21.4163 5.82014 22.2708 8.17606 22.2708 10.6093C22.2708 13.0425 21.4163 15.3984 19.8564 17.266C18.2857 19.1517 16.1154 20.4414 13.7081 20.9195V15.4543H11.5658C10.9126 15.4696 10.2629 15.3572 9.65288 15.1236C9.04515 14.8905 8.49026 14.538 8.02094 14.0869C7.55161 13.6359 7.17736 13.0955 6.92026 12.4975C6.66425 11.9034 6.5322 11.2632 6.5322 10.6161C6.5322 9.96917 6.66425 9.32895 6.92026 8.73472C7.31221 7.82927 7.96739 7.06261 8.8007 6.53437C9.63401 6.00612 10.6069 5.7407 11.593 5.77259H13.7354ZM33.2435 3.99367C35.539 3.99367 37.4162 4.99109 38.206 5.73158L36.8834 7.32471C35.8477 6.48202 34.5594 6.01054 33.2244 5.98575C30.3388 5.98575 28.5353 7.93958 28.5353 10.6311C28.5353 13.3228 30.2459 15.2602 33.2599 15.2602C34.7115 15.2359 36.106 14.6909 37.1894 13.7245L38.441 15.3641C37.6512 16.1838 35.6837 17.2468 33.249 17.2468C29.0025 17.2468 26.3737 14.4349 26.3737 10.6257C26.3737 6.81646 29.0708 3.99367 33.2435 3.99367ZM46.3629 3.99367C50.2924 3.99367 53.1506 6.80825 53.1506 10.6175C53.1506 14.4268 50.2924 17.2386 46.3629 17.2386C42.4334 17.2386 39.5778 14.4268 39.5778 10.6175C39.5778 6.80825 42.4442 3.99367 46.3629 3.99367ZM46.3629 15.2438C46.9763 15.2615 47.5869 15.1539 48.1574 14.9278C48.7279 14.7015 49.2463 14.3615 49.6811 13.9283C50.1158 13.4951 50.4577 12.9779 50.6859 12.4082C50.9141 11.8385 51.0237 11.2283 51.0083 10.6148C51.0083 9.38277 50.5188 8.20112 49.6476 7.32996C48.7765 6.45879 47.5948 5.96935 46.3629 5.96935C45.1308 5.96935 43.9492 6.45879 43.078 7.32996C42.2068 8.20112 41.7174 9.38277 41.7174 10.6148C41.7011 11.2286 41.8103 11.8393 42.0382 12.4095C42.266 12.9798 42.6078 13.4974 43.0427 13.931C43.4775 14.3646 43.9963 14.7049 44.5672 14.9311C45.138 15.1573 45.749 15.2646 46.3629 15.2466V15.2438ZM62.3048 16.949C65.4638 16.949 66.6771 15.14 66.6771 13.2737C66.6771 11.5384 65.5621 10.7268 64.4172 10.3552C65.5567 9.61187 66.0349 8.68827 66.0349 7.67445C66.0349 5.88189 64.5265 4.2942 61.9168 4.2942H55.4651V16.949H62.3048ZM57.5774 9.63925V6.2754L61.9333 6.29448C63.223 6.29448 63.8679 7.03506 63.8679 7.90401C63.8679 8.84134 63.1137 9.63925 61.66 9.63925H57.5774ZM64.5101 13.2573C64.5101 14.1398 63.939 14.9597 62.4497 14.9597H57.5692V11.522H62.4879C63.8269 11.522 64.5101 12.3008 64.5101 13.2573ZM75.1319 10.4182L80.8485 16.9491H78.0339L73.2573 11.4128H70.8143V16.9491H68.6993V4.29429H70.8143V9.51363H73.2573L77.9028 4.28618H80.701L75.1319 10.4182ZM94.1396 10.6175C94.1396 6.80825 91.2816 3.99367 87.3521 3.99367C83.4335 3.99367 80.567 6.80825 80.567 10.6175C80.567 14.4268 83.4226 17.2386 87.3521 17.2386C91.2816 17.2386 94.1396 14.4268 94.1396 10.6175ZM89.1472 14.9285C88.5765 15.1546 87.9656 15.2619 87.3521 15.2438V15.2466C86.7385 15.2638 86.1278 15.156 85.5574 14.9295C84.9868 14.7029 84.4684 14.3627 84.0337 13.9293C83.599 13.4959 83.2572 12.9785 83.029 12.4086C82.8009 11.8388 82.6912 11.2284 82.7067 10.6148C82.7067 9.38277 83.1961 8.20112 84.0673 7.32996C84.9384 6.45879 86.1201 5.96935 87.3521 5.96935C88.5842 5.96935 89.7657 6.45879 90.6369 7.32996C91.5081 8.20112 91.9975 9.38277 91.9975 10.6148C92.0134 11.2284 91.904 11.8388 91.676 12.4087C91.4479 12.9786 91.106 13.4959 90.6712 13.9292C90.2364 14.3625 89.7178 14.7026 89.1472 14.9285ZM108.391 4.28618H110.432V16.9409H108.317V7.54073L104.089 13.1016H102.802L98.5724 7.54893V16.9491H96.4574V4.29429H98.5014L103.445 10.7871L108.391 4.28618ZM124.491 13.1862C124.491 11.0957 122.95 9.45613 120.119 9.45613L115.405 9.46433V6.2836H123.3V4.2942H113.279V16.949H120.261C122.944 16.949 124.491 15.2766 124.491 13.1862ZM122.316 13.1998C122.316 14.1645 121.644 14.9597 120.173 14.9597H115.405V11.4428H120.173C121.655 11.4428 122.316 12.2352 122.316 13.1998ZM136.242 16.949L134.845 13.7846H128.771L127.372 16.949H125.057L130.648 4.2942H132.978L138.57 16.949H136.242ZM129.584 11.8827H134.02L131.801 6.83554L129.584 11.8827ZM151.792 4.28618H149.677V9.53004H142.234V4.29429H140.119V16.9491H142.234V11.5221H149.677V16.9409H151.792V4.28618ZM161.078 10.4182L166.792 16.9491H163.978L159.201 11.4128H156.758V16.9491H154.643V4.29429H156.758V9.51363H159.201L163.847 4.28618H166.653L161.078 10.4182Z" fill="#003790"/>
</svg>
