<svg width="172" height="39" viewBox="0 0 172 39" fill="none" xmlns="http://www.w3.org/2000/svg">
<path fill-rule="evenodd" clip-rule="evenodd" d="M42.9459 17.9492L43.5103 16.1775L41.6416 16.2358C41.4848 16.2358 40.3363 16.2022 39.2245 15.4122C39.3081 15.4189 39.3894 15.4312 39.4765 15.4312C40.6215 15.4312 41.731 14.7543 42.174 13.7861L42.9779 12.038C41.9703 12.0515 41.0486 11.9271 41.0486 11.9271C41.0406 11.9271 40.3146 11.8341 39.4753 10.9925C38.873 10.3907 38.1276 10.0714 37.3204 10.0714C37.0008 10.0725 36.6834 10.1221 36.3792 10.2181C36.4215 10.077 36.4617 9.93243 36.4857 9.78451C36.741 8.14842 35.6682 6.90235 35.6682 6.90235L34.2632 5.19678L33.3919 7.20043C33.3884 7.20714 33.1686 7.67774 32.7759 7.90633C32.6568 7.31697 32.3648 6.65467 31.7419 6.02153C30.566 4.82921 29.1358 4.64989 28.3871 4.64989C28.0401 4.64989 27.7916 4.68799 27.7321 4.69693L26.0363 5.02417C26.1337 4.65325 26.3432 4.00446 26.7233 3.42283L27.66 1.99409L25.3047 2.25743L24.5547 0.6953L23.1017 1.42932L21.7586 0.128296L20.419 1.42821L18.9637 0.6953L18.2148 2.25631L15.8606 1.99297L16.7984 3.42395C17.1797 4.00557 17.3869 4.65101 17.4843 5.02193L15.8664 4.70821L15.8103 4.70038C15.5868 4.66592 15.361 4.64905 15.1347 4.64989C14.3858 4.64989 12.9558 4.82921 11.7833 6.02153C11.1593 6.65355 10.8661 7.31697 10.7471 7.90633C10.3566 7.67885 10.1379 7.2172 10.1379 7.2172L9.26541 5.20013L7.83758 6.91912C7.66354 7.13989 6.80364 8.31199 7.03608 9.78786C7.06126 9.93467 7.1002 10.0781 7.14256 10.2193C6.83929 10.1229 6.52252 10.0734 6.20366 10.0725C5.39527 10.0725 4.64988 10.3918 4.04646 10.9936C3.2106 11.8319 2.48811 11.9271 2.49383 11.9271C2.49383 11.9271 1.73011 12.0616 0.547314 12.0391L1.34768 13.7873C1.79194 14.7555 2.90259 15.4323 4.04531 15.4323C4.13233 15.4323 4.21363 15.42 4.29836 15.4133C3.1877 16.2044 2.0404 16.2369 1.90186 16.2369L0 16.1775L0.575939 17.9481C0.866771 18.8624 1.83545 20.3742 3.69036 20.5366C3.48884 21.3659 3.04114 22.296 2.05872 22.6972L0.641204 23.2686L1.41409 24.5888C1.85033 25.3003 2.87511 26.1329 4.33271 26.1329C4.64759 26.1329 4.95216 26.1004 5.24642 26.0399C5.32085 26.3648 5.41475 26.6898 5.52581 27.0149C5.95862 28.2811 5.58535 29.1641 5.58077 29.1743L4.88232 30.6108L6.44296 31.0142C6.46242 31.021 6.93531 31.1488 7.52499 31.1488C7.96698 31.1514 8.405 31.0672 8.81313 30.9011C9.01579 31.2563 9.26083 31.5813 9.54703 31.8715C10.5478 32.8789 11.9676 33.3888 13.763 33.3888H13.7687L15.0511 33.372L12.4016 34.4522L14.4134 35.4059C15.145 35.7555 16.0106 36.1679 16.8946 36.4839L16.6427 37.1574L17.3354 37.4678C17.3972 37.4958 18.7323 38.0796 20.948 38.204C20.948 38.204 21.4827 38.2286 21.7769 38.2286C22.0723 38.2286 22.6013 38.2029 22.6013 38.2029C24.8021 38.0751 26.1256 37.4958 26.1875 37.4678L26.8825 37.1574L26.6295 36.4828C27.5363 36.1578 28.4351 35.7275 29.137 35.3924L31.111 34.4511L28.4695 33.372L29.7577 33.3888C31.5553 33.3888 32.9751 32.8778 33.9747 31.8704C34.2598 31.5813 34.5037 31.2574 34.7075 30.9011C35.1161 31.0665 35.5545 31.1502 35.9967 31.1476C36.5773 31.1476 37.0547 31.0221 37.0673 31.0176L38.6361 30.6108L37.9525 29.2C37.9364 29.1641 37.5631 28.2811 37.996 27.0126C38.107 26.6899 38.1998 26.3637 38.2753 26.0399C38.5696 26.1004 38.8776 26.1318 39.1948 26.1329C41.052 26.1329 41.9428 24.8521 42.1146 24.5741L42.8806 23.2675L41.4631 22.6972C40.4783 22.2971 40.0318 21.367 39.8326 20.5389C41.6634 20.382 42.6447 18.8692 42.947 17.9503L42.9459 17.9492Z" fill="#FFFFFE"/>
<path fill-rule="evenodd" clip-rule="evenodd" d="M21.758 5.55572C20.2579 5.55684 19.1324 6.03861 18.8874 6.60683L21.758 7.71615L24.6296 6.60683C24.3869 6.03861 23.2613 5.55684 21.758 5.55572ZM21.7889 34.9591H21.7316C20.8224 34.9647 19.5687 34.782 18.9664 34.6083L18.2404 36.5346C18.7191 36.7016 20.3405 37.0221 21.7614 37.0221C23.18 37.0221 24.8026 36.7016 25.28 36.5346L24.5552 34.6094C23.9495 34.782 22.698 34.9647 21.7889 34.9591ZM27.2815 33.0428C26.741 33.3431 25.5353 33.7936 24.8334 34.0021L25.422 35.5934C26.3605 35.3504 27.2723 35.017 28.1436 34.5982L26.9208 34.2004L27.2815 33.0428ZM16.2379 33.0428L16.5996 34.2004L15.3756 34.5982C16.1142 34.9625 17.0141 35.302 18.0962 35.5922L18.6859 34.001C17.9852 33.7925 16.7771 33.3431 16.2379 33.0428ZM21.758 3.71452C22.8903 3.71452 23.9987 3.98009 24.8529 4.44519C24.9308 4.18968 25.0395 3.87818 25.1873 3.55206L24.8643 3.59016L24.5265 3.62379L24.3835 3.32236L23.9506 2.42924L23.1652 2.83034L22.8583 2.98283L22.6132 2.74743L21.758 1.91821L20.9049 2.74743L20.661 2.98283L20.3553 2.83034L19.5652 2.42924L19.1382 3.32236L18.9927 3.62491L18.6538 3.59016L18.3332 3.55206C18.4632 3.84279 18.575 4.14105 18.6676 4.44519C19.524 3.98009 20.6324 3.71452 21.7591 3.71452H21.758ZM39.0304 14.0431C39.1781 14.0924 39.327 14.1148 39.4747 14.1148C40.1158 14.1148 40.7342 13.708 40.946 13.2441C40.946 13.2441 39.7723 13.1747 38.5105 11.9184C38.1098 11.5128 37.6839 11.3906 37.3197 11.3906C36.753 11.3906 36.327 11.6831 36.327 11.6831C37.8522 12.4787 38.1625 13.7562 39.0304 14.0431ZM4.04466 14.1137C4.19351 14.1137 4.34236 14.0924 4.48549 14.042C5.35569 13.7551 5.66942 12.4787 7.19114 11.6843C7.19114 11.6843 6.7652 11.3906 6.20185 11.3906C5.83545 11.3906 5.41065 11.5116 5.00761 11.9195C3.74696 13.1747 2.57446 13.2453 2.57446 13.2453C2.78515 13.708 3.4046 14.1148 4.04466 14.1148V14.1137Z" fill="#FFFFFE"/>
<path fill-rule="evenodd" clip-rule="evenodd" d="M38.5725 23.2071C37.3931 22.6355 36.6489 21.1227 36.468 20.5781C36.2733 23.5791 34.7791 25.6611 33.033 27.6648C32.1261 28.7047 31.8101 29.7155 31.8101 29.7155C31.8101 29.7155 31.9853 28.5702 32.7685 27.6378C34.3978 25.7194 35.9458 23.3303 36.0615 20.5669C36.1406 18.6394 35.6356 17.0762 34.8456 15.7876C35.2875 17.1289 35.2246 18.7728 33.7257 20.3069C33.7257 20.3069 36.7107 16.8017 32.5383 13.2068C30.8689 11.8397 29.0414 10.9947 28.1015 10.3963C31.4987 11.4833 33.1589 10.2865 33.1589 10.2865C32.0735 11.2088 30.6685 11.1931 29.7972 11.0597C30.0342 11.1729 30.2804 11.2917 30.5438 11.4295C33.4097 12.9558 35.9836 15.467 36.4234 18.9431V18.9163C37.0886 22.3307 38.5725 23.2071 38.5725 23.2071ZM39.445 19.2289C39.4701 19.2308 39.4953 19.2315 39.5206 19.2311C41.1179 19.2311 41.6583 17.5536 41.6583 17.5536H41.6274C41.3343 17.5536 38.9595 17.4863 37.2809 15.3942C36.1771 14.0192 35.2715 12.8101 33.483 12.335L33.3066 12.3036L33.2688 12.1277C33.2196 11.8599 33.4063 11.6088 33.8322 11.3388C36.2997 9.75423 34.6223 7.73269 34.6223 7.73269C34.6223 7.73269 33.9192 9.34856 32.3425 9.34856L32.2246 9.34633C32.046 9.33738 31.8731 9.33179 31.699 9.29481L31.4082 9.23874C31.4082 9.23874 31.8582 8.03971 30.7728 6.94045C29.9563 6.1089 28.9613 5.96777 28.3877 5.96777C28.098 5.96777 27.9148 6.00475 27.9148 6.00475C28.4598 6.70282 28.8537 7.86263 28.224 8.57765C27.6801 9.1917 26.3519 9.22197 26.3519 10.1386C26.3519 10.5264 26.7216 10.9791 27.3858 11.3858C29.3827 12.6185 31.3647 14.2546 32.1891 16.4476C33.2196 19.1819 32.0585 20.9972 30.4029 22.0382C30.4029 22.0382 30.9228 22.5067 31.675 22.5672C31.8284 22.5817 31.9784 22.5884 32.1181 22.5884C33.7086 22.5884 34.5306 21.8568 34.5306 21.8568C34.5306 21.8568 34.3944 22.8675 33.5688 23.8055C32.804 24.6705 31.8021 25.1816 30.2735 25.2028C30.2735 25.2028 30.2254 25.8976 30.9021 26.5005C31.336 26.8803 32.3357 27.0048 32.3357 27.0048C32.3357 27.0048 30.4625 27.3756 30.2552 30.0886C30.143 31.5589 29.7605 32.0687 29.7605 32.0687H29.7937C34.1402 32.0687 34.0291 28.4133 34.0291 28.4133C34.0291 28.4133 34.3314 29.4958 35.544 29.7782C35.6906 29.8163 35.8474 29.8309 35.9963 29.8309C36.3856 29.8309 36.7256 29.7413 36.7256 29.7413C36.7256 29.7413 36.0901 28.4279 36.7199 26.5912C37.2431 25.0661 37.1584 23.9365 37.1584 23.9365C37.1584 23.9365 37.7436 24.805 39.1966 24.8129H39.2114C39.5546 24.818 39.8937 24.7384 40.1971 24.5813C40.5005 24.4242 40.7586 24.1947 40.9473 23.9142C38.0493 22.7341 38.3355 18.9275 38.3355 18.9275C38.3355 18.9275 38.7111 19.2031 39.445 19.23V19.2289ZM10.4889 27.6648C8.74277 25.6611 7.24854 23.5791 7.05159 20.5781C6.87183 21.1238 6.12872 22.6366 4.9505 23.2071C4.9505 23.2071 6.43214 22.3307 7.09739 18.9163V18.9431C7.53822 15.467 10.1122 12.9558 12.9782 11.4307C13.2415 11.2906 13.4888 11.1729 13.7235 11.0608C12.8534 11.1931 11.4473 11.2088 10.3629 10.2876C10.3629 10.2876 12.0232 11.4833 15.4193 10.3963C14.4804 10.9947 12.6529 11.8397 10.9847 13.2068C6.81114 16.8017 9.79614 20.3069 9.79614 20.3069C8.29621 18.7717 8.23438 17.13 8.67636 15.7876C7.8863 17.0762 7.38021 18.6394 7.46265 20.568C7.576 23.3303 9.12291 25.7194 10.7488 27.639C11.5366 28.569 11.7141 29.7143 11.7141 29.7143C11.7141 29.7143 11.3934 28.7047 10.4889 27.6648ZM11.1874 27.0036C11.1874 27.0036 12.1869 26.8803 12.621 26.4993C13.2964 25.8976 13.2495 25.2028 13.2495 25.2028C11.7198 25.1816 10.7191 24.6705 9.95071 23.8055C9.12864 22.8675 8.99124 21.8568 8.99124 21.8568C8.99124 21.8568 9.81337 22.5884 11.4015 22.5884C11.5446 22.5884 11.6934 22.5817 11.8457 22.5672C12.3156 22.5206 12.7602 22.3363 13.1213 22.0382C11.4633 20.9972 10.3023 19.1819 11.3317 16.4464C12.156 14.2557 14.1369 12.6185 16.1361 11.3847C16.799 10.9791 17.1678 10.5264 17.1678 10.1386C17.1678 9.22197 15.8418 9.1917 15.298 8.57765C14.6682 7.86263 15.0633 6.70282 15.6071 6.00475C15.6071 6.00475 15.425 5.96777 15.1342 5.96777C14.5617 5.96777 13.5667 6.1089 12.7492 6.94045C11.6614 8.04083 12.1137 9.23986 12.1137 9.23986L11.8229 9.29593C11.6499 9.33068 11.4747 9.33738 11.2962 9.34744L11.1817 9.34856C9.6015 9.34856 8.89964 7.73381 8.89964 7.73381C8.89964 7.73381 7.22449 9.75423 9.69201 11.3388C10.1157 11.6088 10.3023 11.861 10.253 12.1277L10.2152 12.3024L10.0355 12.3338C8.25041 12.8101 7.34472 14.0192 6.23864 15.3942C4.56005 17.4863 2.1876 17.5536 1.89333 17.5536H1.86127C1.86127 17.5536 2.40286 19.2311 4.00129 19.2311C4.02648 19.2311 4.04938 19.2311 4.07686 19.2289C4.81081 19.2031 5.18752 18.9275 5.18752 18.9275C5.18752 18.9275 5.47148 22.7341 2.57461 23.9142C2.57461 23.9142 3.10246 24.814 4.31159 24.814H4.32533C5.77949 24.805 6.36344 23.9365 6.36344 23.9365C6.36344 23.9365 6.27871 25.0673 6.79969 26.5912C7.42944 28.429 6.7974 29.7401 6.7974 29.7401C6.7974 29.7401 7.13518 29.8297 7.52562 29.8297C7.67677 29.8297 7.83134 29.8163 7.97676 29.7782C9.18817 29.4958 9.4916 28.4133 9.4916 28.4133C9.4916 28.4133 9.38054 32.0687 13.7282 32.0687H13.7602C13.7602 32.0687 13.3789 31.5589 13.2678 30.0886C13.0617 27.3767 11.1862 27.0036 11.1862 27.0036H11.1874ZM20.7791 13.534H22.8286V14.2232C22.5882 13.9341 22.1188 13.9935 22.1188 13.9935V14.9874C22.1188 14.9874 22.1348 15.476 22.3111 15.6878H21.2966C21.4741 15.476 21.489 14.9874 21.489 14.9874V13.9935C21.489 13.9935 21.0218 13.9341 20.7791 14.2232V13.534ZM18.5463 13.6371C18.6173 13.7122 18.6872 13.794 18.7547 13.8758C18.7708 13.8948 18.7856 13.9117 18.8017 13.9341C18.8646 14.0147 18.9276 14.1022 18.9883 14.1896L19.0296 14.249C19.1017 14.3565 19.1703 14.4674 19.239 14.5829C19.8666 15.6441 20.8696 16.2784 21.7592 16.2795C22.6512 16.2784 23.6531 15.6441 24.2816 14.5829C24.3491 14.4676 24.4201 14.3544 24.4946 14.2433C24.5782 14.118 24.6676 13.9965 24.7626 13.8792C24.8324 13.794 24.9046 13.7111 24.9779 13.6349C24.9904 13.6237 25.0007 13.6113 25.0134 13.6012C25.3339 13.2808 25.7129 13.0365 26.2122 12.9008L25.99 12.7742H25.9786L25.0947 12.2723L24.1889 11.7624L21.7661 13.0556L21.7592 13.0499L21.7558 13.0556L19.333 11.7624L18.4261 12.2723L17.5422 12.7742H17.5318L17.3085 12.9008C17.8067 13.0353 18.1868 13.2774 18.5074 13.599C18.5211 13.6102 18.5303 13.6259 18.5463 13.6371Z" fill="#FFFFFE"/>
<path fill-rule="evenodd" clip-rule="evenodd" d="M20.9891 9.1525V9.80241L20.862 9.74419C20.8563 9.73972 20.6685 9.69938 20.3444 9.44611C19.8074 9.0382 19.7971 8.66169 19.7971 8.66169L20.9879 9.1525H20.9891ZM21.5502 12.1972V8.16073L18.9303 7.28894L19.6219 11.1998L21.5513 12.1972H21.5502ZM22.5349 9.1525L23.7257 8.66169C23.7257 8.66169 23.7165 9.0382 23.1772 9.44611C22.8532 9.69827 22.6665 9.73972 22.6608 9.74419L22.5349 9.80129V9.1525ZM23.9009 11.201L24.589 7.29006L21.9704 8.16073V12.1972L23.9009 11.1998V11.201ZM17.8449 21.5541C18.1003 21.6438 18.4094 21.6628 18.5686 21.6628C18.5743 21.6438 18.5834 21.6203 18.5914 21.5911C18.6041 21.5463 18.6178 21.4993 18.6281 21.45C18.6728 21.2259 18.6876 20.9737 18.6922 20.81C18.5458 20.7249 18.4265 20.6015 18.3476 20.4537C18.2502 20.2531 18.1117 20.159 17.9091 20.159C17.6457 20.159 17.3628 20.3159 17.2403 20.3876C17.1441 20.9457 17.5643 21.4522 17.8449 21.553V21.5541ZM23.641 19.4127C23.1554 19.9315 22.2017 20.8358 22.1559 20.8807L22.0986 20.9367L19.0872 20.8908C19.0847 21.1346 19.0525 21.3772 18.9911 21.6136L18.967 21.7065L22.5474 22.3385C22.9196 22.0831 23.9444 21.3491 24.3428 21.0611C24.0532 20.6465 24.0257 20.1545 24.091 19.8094C23.9191 19.7031 23.7669 19.5689 23.641 19.4127Z" fill="#FFFFFE"/>
<path fill-rule="evenodd" clip-rule="evenodd" d="M24.0489 15.8628C23.3551 16.5374 22.6898 16.7873 22.0956 16.8455C21.9868 16.8571 21.8775 16.8631 21.7681 16.8635H21.7532C21.5346 16.8635 21.3166 16.841 21.1028 16.7963C21.0639 16.9475 21.0147 17.2647 21.1555 17.565C21.2815 17.8373 21.5368 18.0401 21.91 18.1757L22.0361 18.2239L22.0372 18.3562C22.0372 18.3954 22.0669 19.2538 23.0218 19.4924C23.1776 19.3355 23.3196 19.1932 23.4226 19.0733C23.228 18.624 23.3311 18.1646 23.6138 17.9393C23.6024 17.9875 23.4764 19.1137 24.3982 19.5327L24.5505 19.6033L24.5046 19.7614C24.4898 19.8096 24.1829 20.8999 25.2993 21.3056L25.4962 21.3795L25.4081 21.5667C25.3887 21.6081 24.9512 22.5977 25.9817 23.1602H28.2157V21.4199C27.421 21.3246 27.0855 20.6982 26.9985 20.2545C26.6286 20.1928 26.3436 20.037 26.1477 19.7827C25.6783 19.1776 26.0814 18.6228 26.0871 18.5926C26.0859 18.597 26.0871 19.1865 26.4581 19.5518C26.6424 19.7267 26.8599 19.8633 27.1909 19.8936L27.3523 19.9081L27.366 20.0707C27.3694 20.1054 27.4577 20.9044 28.2157 21.0299L28.2145 17.4776C28.2145 16.9263 28.3782 16.3727 28.5752 15.8617H24.0489V15.8628ZM18.0343 17.4911L17.9747 19.7524L18.238 19.7927L18.8793 17.6221L18.5529 16.9542L18.0354 17.4911H18.0343ZM19.4243 25.8664C19.4066 25.8658 19.3893 25.8618 19.3734 25.8545C19.3574 25.8472 19.3432 25.8368 19.3315 25.8238C19.3198 25.8109 19.3109 25.7958 19.3055 25.7795C19.3 25.7631 19.2979 25.7458 19.2995 25.7285C19.3004 25.7116 19.3049 25.695 19.3126 25.6797C19.3202 25.6644 19.331 25.6507 19.3441 25.6397C19.3572 25.6285 19.3725 25.6199 19.389 25.6146C19.4055 25.6093 19.4229 25.6073 19.4402 25.6086C19.5158 25.612 19.5685 25.6759 19.5663 25.7454C19.5636 25.7798 19.5472 25.8118 19.5207 25.8344C19.494 25.8571 19.4595 25.8685 19.4243 25.8664ZM25.1058 27.8689C25.1253 27.8689 25.1481 27.8712 25.1688 27.8767C25.5695 27.9888 25.6691 29.3985 26.3687 29.524C26.4374 29.5386 26.5016 29.542 26.5565 29.542C26.7591 29.542 26.8794 29.4579 27.0099 29.3066C27.0099 29.3066 26.6573 28.7654 26.3939 28.3989C26.0447 27.9193 25.7734 27.34 25.1219 27.34C25.1058 27.34 25.0875 27.34 25.0703 27.3423C24.9463 27.3471 24.8262 27.3868 24.7245 27.4565C24.507 27.3157 24.2524 27.2398 23.9917 27.238C23.5852 27.238 23.2669 27.4218 23.1078 27.4218H23.1021L21.6478 27.2806C21.42 27.2581 21.2403 27.034 21.175 26.9466L21.1498 26.9085C21.1498 26.8693 21.1498 26.8301 21.1475 26.7954C21.0983 25.6288 20.1777 25.1301 19.849 25.1212C19.849 25.1212 19.888 24.8993 19.7998 24.8153L19.4792 25.1963L18.4258 24.6785L19.177 25.5391L18.5415 26.2395C18.4613 26.3191 18.4716 26.4267 18.5048 26.4726L18.7796 26.7102L19.1277 26.5029C19.1449 26.4906 19.177 26.4861 19.2159 26.4861C19.312 26.4861 19.4563 26.5107 19.5857 26.5107C19.7288 26.5107 19.8513 26.4816 19.8663 26.3505C19.8228 26.7831 19.4128 27.535 19.6819 28.1256L19.8811 28.5716L18.5952 28.39L17.993 29.3862C17.8075 29.7179 17.7778 30.0765 17.9564 30.2714L18.1819 30.5483C18.1819 30.5483 18.498 30.2199 18.5678 30.0036L18.4659 29.8938C18.38 29.8009 18.3846 29.7179 18.4372 29.6182L18.8151 29.004L20.3323 29.3548L20.4124 29.2203C20.5155 29.0523 20.6643 29.0029 20.8269 29.0029C20.8945 29.0029 20.9631 29.0108 21.0341 29.022C21.3158 29.0769 21.7796 29.1497 22.2433 29.1497C22.7528 29.1497 23.2578 29.0601 23.5269 28.7654C24.0764 29.5643 25.1916 29.691 25.1035 30.0978L24.8103 31.4671C25.005 31.4582 25.1916 31.4459 25.3691 31.4223L25.6485 29.9981C25.6711 29.8771 25.691 29.7557 25.7081 29.6338C25.6004 29.5262 25.3405 29.301 25.1928 29.0265C24.997 28.6556 25.1035 28.4617 24.9203 27.9799C24.9203 27.9799 24.9776 27.8678 25.1058 27.8678V27.8689Z" fill="#FFFFFE"/>
<path fill-rule="evenodd" clip-rule="evenodd" d="M17.3506 29.163C17.3506 29.163 17.8543 28.9613 17.9001 28.8156L17.8314 28.652C17.7845 28.5445 17.7902 28.4279 17.883 28.3651L18.4257 27.9965L19.3337 28.1679C19.3337 28.1679 19.1688 27.9662 19.1848 27.6973L18.3192 27.5179L17.5017 28.0054C17.359 28.109 17.2559 28.2563 17.2088 28.4238C17.1617 28.5914 17.1733 28.7696 17.2418 28.9299L17.3506 29.1641V29.163ZM23.7706 31.4849C23.932 31.4781 24.1129 31.4759 24.3087 31.4759C24.3087 31.4759 24.776 30.1369 24.8022 30.0942C24.4553 29.9358 24.1166 29.7604 23.7878 29.5686C23.9263 29.7726 24.2629 30.0046 24.1965 30.1839L23.7706 31.4849Z" fill="#FFFFFE"/>
<path fill-rule="evenodd" clip-rule="evenodd" d="M28.2151 23.5433H15.3052V28.3047C15.3052 30.2523 16.7421 31.4704 18.8639 31.4704C20.6352 31.4704 21.1024 31.5376 21.7607 32.1798C22.2153 31.7349 22.5909 31.5701 23.3638 31.5074L23.3809 31.4346L23.7874 30.2008C23.7645 30.1728 23.1004 29.432 23.1004 29.432C22.837 29.5183 22.6149 29.5329 22.2417 29.5329C21.8603 29.5329 21.4287 29.488 20.9604 29.4029C20.9165 29.3927 20.8715 29.3874 20.8264 29.3872C20.7692 29.3872 20.7657 29.3917 20.7497 29.4197L20.6695 29.5508L20.5207 29.7907L20.2424 29.7268L19.0036 29.441L18.8329 29.7156L18.8593 29.7458L19.0093 29.9083L18.9429 30.1211C18.8513 30.398 18.5559 30.7218 18.4654 30.8115L18.1562 31.1365L17.8734 30.7879L17.6616 30.5268C17.4384 30.2826 17.3868 29.9083 17.5127 29.516C17.5091 29.5187 17.5047 29.5202 17.5001 29.5205L17.1509 29.6629L16.9941 29.3267L16.883 29.0903C16.7764 28.8483 16.7572 28.578 16.8286 28.324C16.8999 28.07 17.0577 27.8474 17.2757 27.6928L18.2719 27.1404L19.2222 27.323C19.2452 27.2334 19.2795 26.9151 19.3058 26.8333C19.2875 26.8311 19.2704 26.8277 19.252 26.8277L18.7047 27.0272L18.178 26.6709C18.178 26.6709 17.9719 26.4759 18.1585 26.2809L18.6681 25.5222L17.3742 23.931L19.3631 24.7311L19.4959 24.5709L19.7639 24.2548L20.0685 24.5395C20.1485 24.6161 20.2042 24.7138 20.2287 24.8207C20.776 25.0303 21.7585 25.6477 21.8455 26.6518L21.5386 26.7718V26.7796C21.6085 26.8614 21.6668 26.895 21.6852 26.8983L23.105 27.0351C23.1416 27.0283 23.1851 27.0126 23.2355 26.9992C23.413 26.9398 23.6775 26.8535 23.9912 26.8535C24.2477 26.8535 24.4951 26.9118 24.732 27.0216C24.8348 26.9839 24.943 26.9621 25.0526 26.9567L25.1213 26.9543C25.8805 26.9543 26.2583 27.5113 26.5618 27.9562C26.6121 28.0335 26.6626 28.1052 26.7152 28.1769C26.9808 28.5445 27.3278 29.0813 27.3415 29.1048L27.4983 29.3435L27.306 29.5631C27.1595 29.7312 26.9362 29.9273 26.5561 29.9273C26.4699 29.9267 26.3841 29.918 26.2996 29.9015C26.2217 29.8869 26.1456 29.864 26.0728 29.8332C26.0612 29.9123 26.0478 29.9911 26.0328 30.0696L25.7843 31.3437C27.2728 30.9852 28.2186 29.8825 28.2186 28.3047L28.2151 23.5433ZM15.3052 23.16H25.3469C24.8454 22.6513 24.8534 22.0092 24.9805 21.5912C24.845 21.5275 24.7191 21.4461 24.6061 21.3491C24.2133 21.6327 23.0157 22.4877 22.7031 22.7029L22.6355 22.7477L18.6944 22.0484H18.6142C18.5204 22.0484 18.3818 22.045 18.2306 22.0259C18.2145 22.0968 18.1777 22.1616 18.1247 22.2123C18.0717 22.2631 18.0049 22.2978 17.9322 22.3121C17.8594 22.3264 17.7841 22.3198 17.7152 22.2932C17.6462 22.2665 17.5867 22.2207 17.5436 22.1616C17.5135 22.1211 17.4919 22.0753 17.4801 22.0266C17.4683 21.9779 17.4665 21.9274 17.4749 21.878L17.4899 21.794C17.0845 21.5139 16.7078 20.8863 16.875 20.2252L16.891 20.1557L16.9483 20.1153C17.0061 20.0768 17.0657 20.0408 17.1269 20.0078L16.8407 19.963C16.7898 19.9544 16.7443 19.9268 16.714 19.886C16.6836 19.8452 16.6708 19.7944 16.6781 19.7444C16.6818 19.7194 16.6906 19.6953 16.704 19.6736C16.7174 19.652 16.735 19.6332 16.7559 19.6182C16.7768 19.6033 16.8005 19.5926 16.8257 19.5868C16.8508 19.5809 16.8769 19.58 16.9024 19.5842L17.5837 19.6896L17.6467 17.3352L18.6612 16.2818L19.2955 17.5895L18.6269 19.8554L19.2291 19.9484C19.2806 19.9566 19.3265 19.9845 19.357 20.0259C19.3875 20.0673 19.4 20.1188 19.3917 20.1692C19.3843 20.2138 19.3609 20.2543 19.3256 20.2836C19.2904 20.3127 19.2455 20.3286 19.1994 20.3283L19.1684 20.3272L18.6772 20.2487C18.6841 20.2644 18.6932 20.2722 18.7002 20.288C18.7548 20.3807 18.8371 20.455 18.936 20.5009L21.9394 20.5491C22.0665 20.4269 22.3813 20.1243 22.7065 19.8038C22.4235 19.7021 22.175 19.5253 21.9889 19.2931C21.8028 19.061 21.6866 18.7826 21.6531 18.4894C21.2409 18.3168 20.9547 18.0591 20.7967 17.7229C20.6043 17.306 20.6729 16.8892 20.7245 16.6863C20.3237 16.544 19.9024 16.2818 19.4719 15.8627H14.9468C15.1414 16.3737 15.3052 16.9273 15.3052 17.4774V23.1589V23.16Z" fill="#FFE52B"/>
<path fill-rule="evenodd" clip-rule="evenodd" d="M19.4404 25.6082C19.423 25.6069 19.4054 25.6089 19.3888 25.6143C19.3722 25.6196 19.3569 25.6283 19.3438 25.6395C19.3306 25.6508 19.32 25.6646 19.3124 25.68C19.3047 25.6953 19.3004 25.7121 19.2995 25.7292C19.2982 25.7463 19.3003 25.7634 19.3059 25.7797C19.3115 25.7959 19.3204 25.8109 19.3321 25.8237C19.3437 25.8365 19.3579 25.8468 19.3737 25.8541C19.3896 25.8613 19.4069 25.8653 19.4244 25.8659C19.4593 25.8681 19.4938 25.8568 19.5203 25.8343C19.5469 25.8119 19.5634 25.7802 19.5663 25.746C19.5682 25.7115 19.556 25.6775 19.5324 25.6517C19.5088 25.6259 19.4757 25.6102 19.4404 25.6082ZM25.4242 35.5927L24.8345 34.0014C25.5364 33.7919 26.7421 33.3415 27.2837 33.0423L26.923 34.1999L28.1447 34.5976C27.4051 34.9607 26.5096 35.3002 25.4242 35.5916V35.5927ZM21.7625 37.0215C20.3415 37.0215 18.7202 36.701 18.2416 36.534L18.9675 34.6089C19.5697 34.7814 20.8224 34.9641 21.7327 34.9585H21.79C22.699 34.9641 23.9505 34.7803 24.5562 34.6089L25.281 36.534C24.8025 36.7021 23.1811 37.0215 21.7625 37.0215ZM15.3778 34.5976L16.6007 34.1999L16.2389 33.0423C16.7782 33.3415 17.9874 33.7931 18.6869 34.0014L18.0973 35.5927C17.0152 35.3014 16.1164 34.9607 15.3778 34.5976ZM28.1997 34.2447L27.4554 33.9645L27.6616 33.2114L27.8871 32.39C27.8871 32.39 26.5703 33.0916 24.712 33.6171C24.1852 33.765 23.7868 33.8334 23.7868 33.8334V34.3926C23.7868 34.3926 22.793 34.5606 21.79 34.5606H21.7327C20.7274 34.5606 19.7358 34.3926 19.7358 34.3926V33.8323C19.7358 33.8323 19.3362 33.765 18.8094 33.6171C16.9534 33.0904 15.6366 32.39 15.6366 32.39L15.8588 33.2114L16.0695 33.9645L15.3229 34.2447L14.4951 34.5472C15.4431 34.9966 16.7577 35.6498 17.9599 35.9726L17.6771 36.7323C17.6771 36.7323 19.2022 37.4137 21.7429 37.4204V37.4215H21.7773V37.4204C24.3215 37.4137 25.8467 36.7323 25.8467 36.7323L25.5605 35.9726C26.7638 35.6498 28.0806 34.9977 29.0241 34.5472L28.1997 34.2447ZM18.656 3.58841L18.9938 3.62428L19.1392 3.32173L19.5652 2.4286L20.3552 2.8298L20.6621 2.98331L21.759 1.91646L22.6143 2.74568L22.8594 2.98331L23.1663 2.8298L23.9517 2.4286L24.3845 3.32173L24.5276 3.62428L24.8654 3.58841L25.1883 3.55143C25.0576 3.84234 24.9455 4.14107 24.8528 4.44567C23.9998 3.97834 22.8915 3.71389 21.7602 3.71389C20.6334 3.71389 19.5251 3.97834 18.6687 4.44567C18.5762 4.14107 18.4646 3.84243 18.3343 3.55143L18.6549 3.58841H18.656ZM21.759 4.17899C23.2739 4.17899 24.4841 4.67203 25.154 5.19535C25.154 5.19535 25.3532 4.02212 26.031 2.98778L24.8116 3.12229L24.1738 1.79434L22.9487 2.41407L21.759 1.26208L20.574 2.41407L19.3465 1.79434L18.7099 3.12341L17.4904 2.98666C18.1694 4.02212 18.3675 5.19423 18.3675 5.19423C19.0408 4.67091 20.2476 4.17899 21.759 4.17899ZM40.947 23.9138C40.947 23.9138 40.4203 24.8137 39.2113 24.8137H39.1963C37.7445 24.8047 37.1582 23.9362 37.1582 23.9362C37.1582 23.9362 37.243 25.0658 36.7208 26.591C36.0911 28.4287 36.7254 29.7398 36.7254 29.7398C36.7254 29.7398 36.3865 29.8306 35.996 29.8306C35.8472 29.8306 35.6914 29.816 35.5437 29.7779C34.3312 29.4967 34.029 28.4142 34.029 28.4142C34.029 28.4142 34.1412 32.0684 29.7936 32.0684H29.7592C29.7592 32.0684 30.1428 31.5586 30.2561 30.0883C30.4622 27.3765 32.3354 27.0034 32.3354 27.0034C32.3354 27.0034 31.3359 26.88 30.9019 26.5002C30.2252 25.8984 30.2721 25.2025 30.2721 25.2025C31.8019 25.1812 32.8049 24.6713 33.5687 23.8051C34.0607 23.251 34.3928 22.5782 34.5305 21.8564C34.5305 21.8564 33.7083 22.5881 32.1179 22.5881C31.9782 22.5881 31.8294 22.5814 31.6759 22.5669C30.9225 22.5075 30.4027 22.038 30.4027 22.038C32.0584 20.9969 33.2194 19.1804 32.19 16.4462C31.3657 14.2554 29.3825 12.6182 27.3867 11.3855C26.7226 10.9788 26.3516 10.526 26.3516 10.1372C26.3516 9.22166 27.6798 9.19251 28.2248 8.57734C28.8546 7.86242 28.4596 6.70261 27.9145 6.00445C27.9145 6.00445 28.0978 5.96747 28.3875 5.96747C28.9623 5.96747 29.9561 6.10868 30.7736 6.94014C31.858 8.04052 31.408 9.23964 31.408 9.23964L31.6989 9.29562C31.8729 9.33037 32.0458 9.33819 32.2255 9.34714L32.3423 9.34825C33.919 9.34825 34.6232 7.73238 34.6232 7.73238C34.6232 7.73238 36.2994 9.75392 33.832 11.3385C33.4071 11.6085 33.2194 11.8607 33.2687 12.1274L33.3076 12.3033L33.4827 12.3335C35.2712 12.8098 36.177 14.0201 37.2819 15.3939C38.9605 17.4861 41.3352 17.5533 41.6272 17.5533H41.6593C41.6593 17.5533 41.1177 19.2308 39.5204 19.2308C39.494 19.2308 39.4712 19.2308 39.4448 19.2286C38.712 19.2029 38.3342 18.9272 38.3342 18.9272C38.3342 18.9272 38.049 22.7338 40.947 23.9138ZM39.5204 19.7441C41.4783 19.7441 42.1333 17.7909 42.1608 17.708L42.3783 17.0188L41.6456 17.0412H41.6432C41.3833 17.0412 39.2238 16.9852 37.693 15.0768L37.5475 14.8997C36.5468 13.6525 35.5976 12.4658 33.9007 11.9245C33.9685 11.8665 34.0408 11.8137 34.1171 11.7665C35.0171 11.1861 35.5414 10.4812 35.672 9.66208C35.8655 8.43054 35.0629 7.44893 35.0285 7.4085L34.4835 6.74741L34.1423 7.53183C34.1194 7.57999 33.5469 8.83509 32.3423 8.83509H32.253C32.1732 8.83239 32.0934 8.82792 32.0137 8.82158C32.0561 8.26129 31.9519 7.3962 31.1504 6.58263C30.1874 5.60437 29.0058 5.45756 28.3875 5.45756C28.0577 5.45756 27.8378 5.4979 27.8138 5.50013L26.9906 5.66044L27.4978 6.31594C27.8963 6.82249 28.258 7.75595 27.8298 8.2434C27.6924 8.40027 27.4108 8.52462 27.1417 8.65131C26.5876 8.90113 25.8296 9.25082 25.8296 10.1372C25.8296 10.7109 26.2841 11.3127 27.1085 11.8226C29.5451 13.3253 31.0497 14.8941 31.6989 16.6254C32.7042 19.288 31.3932 20.8076 30.1187 21.6076L29.5485 21.9674L30.0488 22.4179C30.1164 22.4761 30.7267 23.0039 31.6302 23.0802C31.8019 23.0913 31.9657 23.1003 32.1191 23.1003C32.6973 23.1003 33.1908 23.0107 33.5915 22.8918C33.4718 23.0965 33.3321 23.2894 33.1747 23.4678C32.4476 24.2948 31.5523 24.6713 30.2641 24.6916L29.7855 24.6983L29.7488 25.169C29.7443 25.2642 29.7088 26.1371 30.5503 26.8789C30.6798 26.9932 30.8355 27.0885 30.9992 27.1647C30.4267 27.669 29.8474 28.5475 29.7351 30.0513C29.6401 31.3064 29.3344 31.7714 29.3309 31.7771L28.802 32.5682L29.7581 32.5805C31.337 32.5805 32.5462 32.1547 33.3832 31.3075C33.8167 30.8626 34.1402 30.3263 34.329 29.7398C34.7939 30.1279 35.385 30.3408 35.996 30.3405C36.4426 30.3405 36.8159 30.2475 36.8571 30.2385L37.4674 30.0794L37.1983 29.5213C37.1777 29.4765 36.6693 28.3559 37.2166 26.7568C37.4166 26.1744 37.5554 25.5737 37.6311 24.9638C38.0158 25.161 38.53 25.3225 39.1952 25.3247C40.7066 25.3247 41.3718 24.2186 41.4016 24.1727L41.6993 23.6639L41.1474 23.442C39.3475 22.7092 38.949 20.7414 38.8689 19.6768C39.0326 19.7071 39.2181 19.7351 39.4276 19.7407L39.5204 19.7441Z" fill="#1A1919"/>
<path fill-rule="evenodd" clip-rule="evenodd" d="M37.32 11.3905C37.6841 11.3905 38.1101 11.5126 38.5109 11.9194C39.7727 13.1745 40.9462 13.2451 40.9462 13.2451C40.7333 13.7078 40.115 14.1146 39.4749 14.1146C39.3272 14.1146 39.1772 14.0922 39.0318 14.0418C38.1627 13.7549 37.8524 12.4785 36.3284 11.6841C36.3284 11.6841 36.7521 11.3905 37.32 11.3905ZM36.08 12.1368C36.8094 12.5178 37.2353 13.0299 37.6086 13.4826C37.975 13.9253 38.3219 14.351 38.8681 14.5281C39.0604 14.5931 39.2654 14.6245 39.4749 14.6245C40.2913 14.6245 41.1123 14.1337 41.4237 13.4546L41.7363 12.7755L40.9794 12.7307C40.9439 12.7307 39.9696 12.6422 38.8863 11.5574C38.4399 11.1115 37.9006 10.8783 37.32 10.8783C36.6101 10.8783 36.0834 11.2258 36.0261 11.2616L35.33 11.7423L36.08 12.1368ZM36.4224 18.9175V18.9432C35.9826 15.4672 33.4087 12.9571 30.5428 11.4308C30.2794 11.2918 30.0332 11.173 29.7962 11.061C30.6675 11.1933 32.0725 11.2089 33.1579 10.2877C33.1579 10.2877 31.4977 11.4834 28.1004 10.3965C29.0393 10.9948 30.8679 11.8398 32.5373 13.207C36.7086 16.8018 33.7247 20.3071 33.7247 20.3071C35.2246 18.773 35.2865 17.1302 34.8445 15.7877C35.6346 17.0763 36.1383 18.6396 36.0605 20.5682C35.946 23.3304 34.3968 25.7195 32.7675 27.6392C31.9842 28.5692 31.8103 29.7145 31.8103 29.7145C31.8103 29.7145 32.1263 28.7048 33.032 27.666C34.7781 25.6601 36.2724 23.5792 36.467 20.5782C36.6479 21.124 37.3921 22.6367 38.5715 23.2072C38.5715 23.2072 37.0887 22.3308 36.4224 18.9175ZM13.7282 32.0688C9.38068 32.0688 9.49174 28.4146 9.49174 28.4146C9.49174 28.4146 9.18717 29.4971 7.97689 29.7784C7.82906 29.8148 7.67706 29.8325 7.52462 29.831C7.13532 29.831 6.79639 29.7414 6.79639 29.7414C6.79639 29.7414 7.42958 28.4281 6.79868 26.5913C6.27885 25.0674 6.36357 23.9366 6.36357 23.9366C6.36357 23.9366 5.77848 24.8052 4.32546 24.8141H4.31058C3.1026 24.8141 2.57474 23.9143 2.57474 23.9143C5.47161 22.7343 5.18766 18.9276 5.18766 18.9276C5.18766 18.9276 4.80979 19.2032 4.07699 19.2302H4.00028C2.40185 19.2302 1.86026 17.5537 1.86026 17.5537H1.89346C2.18888 17.5537 4.56019 17.4865 6.23762 15.3943C7.34256 14.0193 8.24941 12.8102 10.0345 12.3351L10.2142 12.3037L10.252 12.1278C10.3024 11.8611 10.1147 11.609 9.69092 11.3389C7.22348 9.75437 8.89862 7.73394 8.89862 7.73394C8.89862 7.73394 9.59936 9.3487 11.1807 9.3487L11.2952 9.34758C11.4737 9.33864 11.6489 9.33081 11.8218 9.29495L12.1127 9.23999C12.1127 9.23999 11.6615 8.04097 12.7493 6.94058C13.5668 6.10903 14.5595 5.96791 15.1332 5.96791C15.4252 5.96791 15.605 6.00489 15.605 6.00489C15.0622 6.70296 14.6683 7.86277 15.2958 8.57779C15.8408 9.19295 17.1679 9.22211 17.1679 10.1376C17.1679 10.5265 16.798 10.9792 16.1351 11.386C14.137 12.6186 12.155 14.2547 11.3307 16.4478C10.3024 19.182 11.4634 20.9973 13.1202 22.0395C13.1202 22.0395 12.5993 22.5079 11.8459 22.5673C11.6982 22.5812 11.55 22.5883 11.4016 22.5886C9.81237 22.5886 8.99022 21.858 8.99022 21.858C8.99022 21.858 9.12762 22.8677 9.94971 23.8067C10.7169 24.6718 11.7188 25.1817 13.2474 25.2029C13.2474 25.2029 13.2966 25.8977 12.6199 26.5006C12.1859 26.8816 11.1864 27.0049 11.1864 27.0049C11.1864 27.0049 13.0607 27.3769 13.2668 30.0887C13.379 31.559 13.7592 32.0688 13.7592 32.0688H13.7282ZM14.1898 31.7775C14.1885 31.7719 13.8852 31.3069 13.7878 30.0518C13.6733 28.5479 13.094 27.6694 12.5203 27.1651C12.6863 27.0889 12.8409 26.9936 12.9691 26.8794C13.8107 26.1375 13.7752 25.2657 13.7694 25.1693L13.7375 24.6987L13.2554 24.692C11.9707 24.6718 11.0742 24.2953 10.3471 23.4683C10.1903 23.2893 10.0508 23.0964 9.9303 22.8923C10.331 23.0121 10.8211 23.1007 11.4016 23.1007C11.5561 23.1007 11.7188 23.0918 11.8894 23.0805C12.4738 23.0234 13.0264 22.7927 13.473 22.4194L13.9733 21.9678L13.4031 21.6092C12.1252 20.8079 10.8188 19.2896 11.8229 16.6259C12.4722 14.8946 13.9733 13.3269 16.4145 11.823C17.2389 11.3131 17.69 10.7114 17.69 10.1376C17.69 9.25126 16.9343 8.90158 16.3801 8.65175C16.1099 8.52507 15.8283 8.39959 15.692 8.24385C15.2626 7.75639 15.6232 6.82293 16.0229 6.31638L16.5335 5.66079L15.7057 5.50058C15.6828 5.49722 15.4652 5.45801 15.1332 5.45801C14.516 5.45801 13.3355 5.60481 12.3737 6.58307C11.5711 7.39665 11.4657 8.26285 11.5069 8.82203C11.4277 8.82836 11.3483 8.83283 11.2688 8.83544H11.1807C9.97151 8.83544 9.40128 7.58043 9.37952 7.53227L9.03946 6.74786L8.48986 7.40894C8.45894 7.44928 7.654 8.43099 7.85094 9.66252C7.98033 10.4806 8.50474 11.1865 9.40472 11.767C9.50319 11.8286 9.57071 11.8813 9.62001 11.9249C7.92079 12.4662 6.97386 13.653 5.97313 14.9002L5.82886 15.0772C4.29913 16.9856 2.13391 17.0427 1.87515 17.0427L1.13776 17.0204L1.36218 17.7084C1.38852 17.7914 2.04117 19.7445 4.00028 19.7445L4.09417 19.7412C4.30141 19.7356 4.48805 19.7075 4.65293 19.6762C4.57278 20.7408 4.17203 22.7096 2.37208 23.4414L1.82247 23.6655L2.12018 24.1732C2.35876 24.5325 2.68667 24.8268 3.07319 25.0283C3.45971 25.2298 3.89217 25.3318 4.33004 25.3251C4.87181 25.3304 5.40686 25.2074 5.88954 24.9665C5.94794 25.4484 6.06931 26.0658 6.30518 26.7572C6.85249 28.3552 6.34297 29.4769 6.3235 29.5217L6.05328 30.0798L6.66357 30.2378C6.70479 30.249 7.08035 30.3409 7.52462 30.3409C8.13587 30.3424 8.72741 30.1293 9.19175 29.7403C9.3805 30.3265 9.70358 30.8626 10.1364 31.308C10.9768 32.1541 12.1848 32.581 13.7626 32.581L14.7187 32.5687L14.1898 31.7775Z" fill="#1A1919"/>
<path fill-rule="evenodd" clip-rule="evenodd" d="M5.00698 11.9188C5.41003 11.512 5.83482 11.3888 6.20122 11.3888C6.76457 11.3888 7.19166 11.6835 7.19166 11.6835C5.6688 12.4791 5.35506 13.7543 4.48486 14.0423C4.34313 14.0904 4.19402 14.1144 4.04402 14.113C3.40396 14.113 2.78452 13.7073 2.57384 13.2445C2.57384 13.2445 3.74632 13.1739 5.00698 11.9188ZM4.04402 14.624C4.25356 14.624 4.45852 14.5926 4.65317 14.5276C5.1982 14.3505 5.54628 13.9258 5.91269 13.4821C6.2871 13.0305 6.70846 12.5183 7.43898 12.1373L8.1901 11.7417L7.49165 11.26C7.4344 11.2252 6.91112 10.8789 6.20122 10.8789C5.61956 10.8789 5.07912 11.1109 4.63371 11.5569C3.54939 12.6428 2.57727 12.7301 2.54177 12.7313L1.78607 12.7749L2.09522 13.4551C2.40895 14.1332 3.22878 14.624 4.04402 14.624ZM7.45958 20.5676C7.37943 18.639 7.88325 17.0758 8.6733 15.7871C8.23361 17.1296 8.29315 18.7724 9.79537 20.3076C9.79537 20.3076 6.80922 16.8001 10.9827 13.2075C12.6522 11.8393 14.4785 10.9943 15.4174 10.3959C12.0213 11.483 10.3622 10.2861 10.3622 10.2861C11.4465 11.2083 12.8514 11.1938 13.7228 11.0593C13.4869 11.1725 13.2396 11.2901 12.9763 11.4302C10.1103 12.9554 7.53745 15.4666 7.09548 18.9428V18.917C6.43022 22.3303 4.94859 23.2066 4.94859 23.2066C6.12794 22.6351 6.86991 21.1223 7.05082 20.5777C7.24776 23.5787 8.74086 25.6608 10.4858 27.6654C11.3927 28.7043 11.711 29.7139 11.711 29.7139C11.711 29.7139 11.5347 28.5698 10.748 27.6386C9.12213 25.719 7.57409 23.3299 7.45958 20.5676ZM20.7771 13.5337V14.2239C21.0199 13.9336 21.4871 13.9931 21.4871 13.9931V14.987C21.4871 14.987 21.4722 15.4756 21.2947 15.6874H22.3092C22.1329 15.4756 22.1157 14.987 22.1157 14.987V13.9931C22.1157 13.9931 22.5852 13.9336 22.8256 14.2239V13.5337H20.776H20.7771ZM20.3421 9.44567C20.6661 9.69783 20.8539 9.7404 20.8597 9.74375L20.9856 9.80085V9.15206L19.7948 8.66125C19.7948 8.66125 19.8051 9.03777 20.3421 9.44567ZM23.1748 9.44567C23.7129 9.03777 23.7245 8.66125 23.7245 8.66125L22.5324 9.15206V9.80197L22.6585 9.74375C22.6642 9.7404 22.8508 9.69783 23.1748 9.44567Z" fill="#1A1919"/>
<path fill-rule="evenodd" clip-rule="evenodd" d="M21.7599 7.71678L18.8894 6.60522C19.1333 6.03812 20.2589 5.55625 21.7599 5.55514C23.2622 5.55625 24.3877 6.03812 24.6316 6.60522L21.7599 7.71678ZM23.8999 11.2008L21.9707 12.198V8.15943L24.5892 7.28763L23.8999 11.1985V11.2008ZM25.0954 12.272L25.977 12.7741H25.9896L26.2118 12.9007C25.7137 13.0352 25.3324 13.2805 25.0129 13.6011L24.9786 13.6347C24.9032 13.7133 24.8311 13.7948 24.7622 13.879L24.7221 13.9305C24.6534 14.0168 24.5881 14.1054 24.5275 14.1972L24.4942 14.2431C24.42 14.3541 24.3493 14.4674 24.2824 14.5827C23.6527 15.6439 22.6507 16.2782 21.7599 16.2804C20.8692 16.2782 19.8661 15.6439 19.2386 14.5827C19.1719 14.4695 19.1021 14.3582 19.0291 14.2487L18.9879 14.1894C18.9281 14.1029 18.8662 14.0176 18.8024 13.9339C18.7864 13.9114 18.7715 13.8947 18.7554 13.8756C18.6882 13.7939 18.6184 13.7142 18.5459 13.6369C18.531 13.6257 18.5207 13.6111 18.507 13.5988C18.1799 13.2636 17.7653 13.0221 17.3081 12.9007L17.5326 12.7741H17.5417L18.4269 12.272L19.3325 11.7622L21.7554 13.0553L21.7599 13.0508L21.7668 13.0553L24.1885 11.7622L25.0954 12.272ZM28.5762 15.8625C28.3781 16.3734 28.2143 16.927 28.2143 17.4772L28.2166 21.0295C27.4598 20.9063 27.3693 20.1061 27.367 20.0715L27.3533 19.9089L27.1896 19.8944C26.9119 19.8704 26.6524 19.749 26.459 19.5526C26.087 19.1884 26.087 18.5989 26.087 18.5933C26.0824 18.6236 25.6793 19.1761 26.1465 19.7812C26.3434 20.0367 26.6297 20.1947 26.9984 20.2563C27.0854 20.6989 27.4221 21.3253 28.2166 21.4218V23.1586H25.9828C24.9523 22.5972 25.3885 21.6089 25.4091 21.5663L25.4961 21.3781L25.2992 21.3052C24.1828 20.8996 24.4908 19.808 24.5057 19.761L24.5514 19.6019L24.398 19.5324C23.4774 19.1133 23.6022 17.986 23.6149 17.9389C23.3309 18.1641 23.229 18.6225 23.4237 19.0741C23.3183 19.1929 23.1763 19.3352 23.0217 19.4921C22.7528 19.4346 22.5106 19.2921 22.3326 19.0865C22.1547 18.8809 22.0508 18.6237 22.037 18.3546L22.0359 18.2224L21.9099 18.1754C21.5378 18.0409 21.2825 17.837 21.1554 17.5646C21.0518 17.3206 21.0333 17.05 21.1027 16.7948C21.3167 16.8382 21.5346 16.8608 21.7531 16.862H21.7679C21.879 16.862 21.9878 16.8553 22.0954 16.8452C22.6909 16.7869 23.355 16.5371 24.0488 15.8625H28.5762ZM25.7847 31.3435L26.0342 30.0694L26.0743 29.834C26.2284 29.8931 26.3921 29.9246 26.5575 29.9271C26.9377 29.9271 27.1598 29.7298 27.3076 29.5629L27.4976 29.3444L27.3419 29.1046C27.3281 29.081 26.9812 28.5443 26.7155 28.1767C26.6628 28.1041 26.612 28.0301 26.5633 27.9548C26.2598 27.5111 25.8808 26.9541 25.1205 26.9541L25.0529 26.9564C24.9435 26.9621 24.8355 26.9837 24.7324 27.0203C24.501 26.912 24.248 26.8553 23.9916 26.8544C23.7336 26.8605 23.4785 26.9089 23.237 26.9978C23.1867 27.0124 23.1408 27.0281 23.1053 27.0348L21.6855 26.8981C21.6277 26.8704 21.5775 26.8297 21.5389 26.7793V26.7715L21.8458 26.6516C21.7599 25.6475 20.7764 25.03 20.2291 24.8205C20.2048 24.7131 20.1491 24.615 20.0688 24.5381L19.7642 24.2546L19.4963 24.5695L19.3646 24.7308L17.3746 23.9296L18.6684 25.522L18.1589 26.2806C17.9711 26.4745 18.1784 26.6706 18.1784 26.6706L18.7051 27.027L19.2524 26.8264C19.2707 26.8264 19.2867 26.8309 19.3062 26.8331C19.2799 26.9149 19.2455 27.2343 19.2227 27.3228L18.2734 27.1401L17.2772 27.6926C16.7631 28.0624 16.6933 28.672 16.8845 29.09L16.9944 29.3276L17.1513 29.6627L17.5005 29.5214C17.5063 29.5192 17.5109 29.5181 17.5143 29.5147C17.3883 29.908 17.4399 30.2812 17.6631 30.5266L17.8749 30.7877L18.1567 31.1373L18.4658 30.8112C18.5574 30.7216 18.8528 30.3977 18.9432 30.1198L19.0096 29.908L18.8596 29.7456L18.8344 29.7153L19.0039 29.4408L20.2428 29.7276L20.5222 29.7904L20.6711 29.5495L20.7512 29.4194C20.7661 29.3914 20.7695 29.3869 20.8268 29.3869C20.8714 29.3869 20.9149 29.3914 20.9619 29.4027C21.3844 29.4843 21.8137 29.5274 22.2443 29.5315C22.6142 29.5315 22.8374 29.5181 23.1007 29.4317C23.1007 29.4317 23.766 30.1713 23.7889 30.2005L23.3813 31.4332L23.3629 31.5071C22.5924 31.5688 22.2168 31.7346 21.7622 32.1795C21.1027 31.5385 20.6367 31.4701 18.8654 31.4701C16.7436 31.4701 15.3056 30.252 15.3056 28.3033V23.5431H28.2166L28.219 28.3033C28.219 29.8822 27.2732 30.9838 25.7847 31.3435ZM17.8326 28.6519L17.9001 28.8166C17.8544 28.96 17.3505 29.1639 17.3505 29.1639L17.2429 28.9297C17.1741 28.7692 17.1624 28.5908 17.2095 28.423C17.2566 28.2551 17.3599 28.1077 17.5028 28.0041L18.3192 27.5167L19.186 27.696C19.1795 27.865 19.2315 28.0312 19.3336 28.1678L18.4269 27.9974L17.8829 28.365C17.7914 28.4278 17.7845 28.5443 17.8326 28.6519ZM25.6472 29.9966L25.369 31.4209C25.1904 31.4454 25.0026 31.459 24.8102 31.4657L25.1034 30.0985C25.1904 29.6906 24.0775 29.564 23.5267 28.7651C23.2576 29.0608 22.7527 29.1494 22.2443 29.1494C21.7795 29.1494 21.3168 29.0765 21.034 29.0216C20.966 29.01 20.897 29.0037 20.8279 29.0026C20.6641 29.0026 20.5164 29.0519 20.4134 29.2211L20.3333 29.3555L18.815 29.0048L18.4371 29.6178C18.3845 29.7175 18.3798 29.8004 18.4658 29.8935L18.5688 30.0033C18.4979 30.2196 18.1818 30.5479 18.1818 30.5479L17.9562 30.2711C17.7776 30.0761 17.8073 29.7175 17.9928 29.3858L18.5951 28.3885L19.881 28.5711L19.6818 28.124C19.4127 27.5335 19.8226 26.7826 19.8661 26.3501C19.8512 26.4812 19.7287 26.5104 19.5867 26.5104C19.4562 26.5104 19.3119 26.4868 19.2157 26.4868C19.1779 26.4868 19.1447 26.4902 19.1276 26.5025L18.7795 26.7098L18.5047 26.4723C18.4715 26.4275 18.4612 26.3187 18.5414 26.2381L19.1779 25.5388L18.4269 24.6782L19.4779 25.197L19.7997 24.8149C19.8879 24.9001 19.8489 25.1208 19.8489 25.1208C20.1776 25.1298 21.0993 25.6284 21.1474 26.7939C21.1508 26.8298 21.1508 26.869 21.1508 26.9082L21.1749 26.9463C21.2401 27.0348 21.4199 27.26 21.6477 27.2802L23.1019 27.4215H23.1076C23.268 27.4215 23.5851 27.2377 23.9916 27.2377C24.2148 27.2377 24.461 27.2937 24.7244 27.4561C24.7244 27.4561 24.8572 27.3531 25.0713 27.3418C25.0873 27.3396 25.1057 27.3396 25.1205 27.3396C25.7732 27.3396 26.0446 27.9179 26.395 28.3986C26.6583 28.7639 27.0098 29.3063 27.0098 29.3063C26.8804 29.4575 26.759 29.5416 26.5564 29.5416C26.4934 29.5418 26.4304 29.5358 26.3686 29.5237C25.6702 29.397 25.5682 27.9885 25.1698 27.8764C25.1489 27.871 25.1273 27.8683 25.1057 27.8686C24.9775 27.8686 24.9213 27.9806 24.9213 27.9806C25.1045 28.4613 24.9969 28.6552 25.1938 29.0262C25.3404 29.3007 25.6003 29.5259 25.708 29.6335C25.708 29.6335 25.6793 29.8419 25.6472 29.9977V29.9966ZM24.3087 31.4757C24.1141 31.4757 23.9332 31.478 23.7706 31.4847L24.1965 30.1837C24.263 30.0033 23.9263 29.7714 23.7877 29.5674C23.9973 29.6974 24.5412 29.982 24.8034 30.094C24.6335 30.5529 24.4685 31.0134 24.3087 31.4757ZM17.9746 19.752L18.0352 17.4906L18.5528 16.9539L18.8779 17.6218L18.2368 19.7924L17.9734 19.7532L17.9746 19.752ZM18.3467 20.4536C18.4252 20.6008 18.5442 20.7239 18.6902 20.8087C18.6862 21.0237 18.6651 21.238 18.6272 21.4497C18.6158 21.4991 18.6043 21.545 18.5894 21.5909C18.5826 21.6201 18.5733 21.6436 18.5676 21.6626C18.4085 21.6626 18.0982 21.6436 17.8451 21.5528C17.5635 21.452 17.1433 20.9455 17.2406 20.3874C17.362 20.3146 17.6436 20.1588 17.9081 20.1588C18.1108 20.1588 18.2494 20.2529 18.3467 20.4536ZM24.342 21.0609C23.9446 21.3489 22.9187 22.0828 22.5466 22.3384L18.965 21.7063L18.9901 21.6134C19.036 21.4307 19.0852 21.1819 19.0875 20.8894L22.0977 20.9365L22.1549 20.8805C22.2008 20.8357 23.1546 19.9314 23.64 19.4125C23.7557 19.5548 23.8999 19.6893 24.09 19.808C24.026 20.1555 24.0522 20.6463 24.342 21.0609ZM19.4722 15.8625C19.9039 16.2816 20.3241 16.5427 20.7249 16.6861C20.6734 16.8878 20.6047 17.3069 20.797 17.7227C20.955 18.0589 21.2413 18.3165 21.6546 18.4891C21.7005 18.9037 21.9672 19.5279 22.708 19.8036C22.3828 20.1241 22.0668 20.4266 21.9409 20.5476L18.9364 20.5017C18.8371 20.4553 18.7548 20.3802 18.7005 20.2865C18.6948 20.272 18.6844 20.2642 18.6776 20.2484L19.1688 20.3269L19.1997 20.328C19.2459 20.3284 19.2907 20.3124 19.3259 20.2833C19.3612 20.2541 19.3847 20.2135 19.3921 20.1689C19.4004 20.1187 19.3881 20.0674 19.3578 20.026C19.3275 19.9846 19.2819 19.9567 19.2307 19.9481L18.6272 19.854L19.2959 17.5893L18.6627 16.2816L17.6471 17.3349L17.5853 19.6893L16.9029 19.5828C16.7975 19.5627 16.6967 19.6389 16.6773 19.7431C16.6697 19.7935 16.6825 19.8449 16.7131 19.8862C16.7437 19.9274 16.7896 19.9553 16.841 19.9639L17.1273 20.0064C17.0661 20.04 17.0064 20.0762 16.9486 20.1151L16.8913 20.1555L16.8754 20.225C16.7094 20.8861 17.0848 21.5136 17.4902 21.7938L17.4754 21.8778C17.4593 21.9787 17.4822 22.0795 17.544 22.1614C17.5792 22.211 17.6263 22.2515 17.6812 22.2793C17.7362 22.307 17.7972 22.3211 17.8589 22.3205C17.9456 22.3197 18.0297 22.2904 18.0973 22.2371C18.1647 22.1838 18.212 22.1097 18.2311 22.0269C18.3821 22.0436 18.5207 22.0482 18.6147 22.0482H18.6959L22.6359 22.7463L22.7035 22.7026C23.0172 22.4874 24.2149 21.6324 24.6065 21.3489C24.7153 21.4396 24.8355 21.5225 24.9809 21.5909C24.8537 22.0089 24.8457 22.6511 25.3472 23.1597H15.3056V17.4783C15.3056 16.927 15.1418 16.3734 14.9471 15.8625H19.4722ZM18.9295 7.28987L21.5505 8.16054V12.1969L19.6211 11.1997L18.9295 7.28875V7.28987ZM25.3233 6.80242C25.3233 5.81735 23.632 4.93103 21.7657 4.93103H21.7542C19.8879 4.93103 18.1979 5.81735 18.1979 6.80242L18.2345 7.04442L18.9799 11.2389L18.2311 11.6647L16.2949 12.7741H16.3017C16.3017 12.7741 15.8665 12.9937 15.6639 13.1281C14.9266 13.6302 14.7697 14.363 15.1979 14.6657C15.3033 14.0684 15.7853 13.4442 16.6864 13.4442C17.3368 13.4442 17.8314 13.7737 18.2322 14.2656C18.3352 14.39 18.4326 14.5233 18.523 14.6657C18.6352 14.846 18.7486 15.0052 18.8596 15.1576H13.8697C14.2361 15.8804 14.5853 16.6458 14.5853 17.4772V28.3044C14.5853 30.9244 16.6406 32.175 18.8642 32.175C20.5829 32.175 20.8141 32.0988 21.7622 33.0244C22.7057 32.0988 22.9382 32.175 24.658 32.175C26.8828 32.175 28.9345 30.9244 28.9345 28.3044V17.4772C28.9345 16.6458 29.2838 15.8804 29.6525 15.1576H24.6602C24.7725 15.0052 24.8847 14.846 24.9969 14.6657C25.0885 14.5233 25.1858 14.39 25.2866 14.2656C25.6896 13.7714 26.1842 13.4442 26.8346 13.4442C27.7358 13.4442 28.2167 14.0684 28.3231 14.6657C28.7514 14.363 28.5968 13.6302 27.8537 13.1281C27.6481 13.0003 27.4364 12.8822 27.2193 12.7741H27.2274L25.2866 11.6647L24.5423 11.2389L25.2866 7.04442L25.3233 6.80242Z" fill="#1A1919"/>
<path d="M57.3877 24.8484H60.8228V17.0266H65.5401V14.1803H52.6703V17.0266H57.3877V24.8484ZM75.9598 14.1803L70.2347 20.3884V14.1803H66.9141V24.8484H69.8454L75.5705 18.6402V24.8484H78.891V14.1803H75.9598ZM84.7271 20.8815H90.0628V24.8484H93.3833V14.1803H90.0628V18.0799H84.7271V14.1803H81.4066V24.8484H84.7271V20.8815ZM102.63 24.8484C103.386 24.8484 104.073 24.7811 104.714 24.6018C106.432 24.1312 107.554 22.7641 107.554 20.9039C107.554 19.1334 106.592 17.9007 105.058 17.3404C104.325 17.0714 103.455 17.049 102.63 17.049H99.2183V14.1803H95.8975V24.8484H102.63ZM99.2183 19.5592H102.057C102.516 19.5592 102.951 19.5592 103.34 19.6937C103.89 19.873 104.21 20.3212 104.21 20.8591C104.21 21.4194 103.89 21.89 103.363 22.1142C102.997 22.271 102.63 22.271 102.057 22.271H99.2183V19.5592ZM112.592 20.8143H113.508L117.47 24.8484H121.889L116.371 19.2902L121.683 14.1803H117.516L113.508 18.192H112.592V14.1803H109.271V24.8484H112.592V20.8143Z" fill="black"/>
<path d="M128.721 13.8892C124.255 13.8892 121.576 16.3545 121.576 19.537C121.576 22.7195 124.255 25.1848 128.721 25.1848C133.164 25.1848 135.843 22.7195 135.843 19.537C135.843 16.3545 133.164 13.8892 128.721 13.8892ZM128.721 22.585C126.499 22.585 125.08 21.2852 125.08 19.537C125.08 17.7889 126.499 16.5114 128.721 16.5114C130.919 16.5114 132.362 17.7889 132.362 19.537C132.362 21.2852 130.919 22.585 128.721 22.585ZM146.901 14.6512V13.5754H143.581V14.6512C139.413 14.7408 136.917 16.4665 136.917 19.5146C136.917 22.5627 139.413 24.1539 143.581 24.2435V25.3193H146.901V24.2435C151.092 24.1539 153.588 22.5627 153.588 19.5146C153.588 16.4665 151.092 14.7408 146.901 14.6512ZM143.581 21.9575C141.291 21.8678 140.283 20.949 140.283 19.5146C140.283 18.0803 141.291 17.0493 143.581 16.9597V21.9575ZM146.901 21.9575V16.9597C149.214 17.0493 150.199 18.0803 150.199 19.5146C150.199 20.949 149.214 21.8678 146.901 21.9575ZM164.636 14.6512V13.5754H161.315V14.6512C157.147 14.7408 154.65 16.4665 154.65 19.5146C154.65 22.5627 157.147 24.1539 161.315 24.2435V25.3193H164.636V24.2435C168.826 24.1539 171.322 22.5627 171.322 19.5146C171.322 16.4665 168.826 14.7408 164.636 14.6512ZM161.315 21.9575C159.025 21.8678 158.017 20.949 158.017 19.5146C158.017 18.0803 159.025 17.0493 161.315 16.9597V21.9575ZM164.636 21.9575V16.9597C166.949 17.0493 167.933 18.0803 167.933 19.5146C167.933 20.949 166.949 21.8678 164.636 21.9575Z" fill="black"/>
</svg>
