<svg width="73" height="29" viewBox="0 0 73 29" fill="none" xmlns="http://www.w3.org/2000/svg">
<path fill-rule="evenodd" clip-rule="evenodd" d="M5.06855 1.81348L3.80061 5.22722H21.3713L22.6392 1.81348H5.06855ZM3.16612 6.93331L1.89819 10.3462H19.4689L20.7368 6.93331H3.16612ZM1.26793 12.0531L0 15.4661H17.5707L18.8378 12.0531H1.26793Z" fill="#009FDF"/>
<path fill-rule="evenodd" clip-rule="evenodd" d="M36.6239 16.184V16.2559C37.4066 16.5448 38.1543 17.05 38.546 17.3745C39.7562 18.3849 40.2905 19.7199 40.2905 21.4519C40.2905 24.3033 38.7952 26.3597 36.3389 27.0095C35.5912 27.2258 34.8085 27.2984 33.3483 27.2984H25.9092V6.44165H32.4947C33.8475 6.44165 34.7727 6.51351 35.5912 6.7298C37.9767 7.37948 39.5428 9.03965 39.5428 11.6732C39.5428 13.0808 39.0444 14.272 38.2259 15.0654C37.87 15.4261 37.3715 15.8596 36.6239 16.184ZM30.0385 18.3849V23.8699H32.8866C33.7401 23.8699 34.5236 23.7981 35.0937 23.2565C35.663 22.715 35.9122 22.0297 35.9122 21.1274C35.9122 20.4422 35.7339 19.7925 35.3779 19.3236C34.7728 18.5657 34.0252 18.3849 32.7441 18.3849H30.0385ZM30.0028 14.7765H32.3166C33.0284 14.7765 33.3844 14.7765 33.7403 14.6683C34.7021 14.3794 35.3072 13.5141 35.3072 12.3229C35.3072 10.9161 34.6662 10.302 33.7403 10.0138C33.3485 9.90566 32.9575 9.86937 32.1741 9.86937H30.0028V14.7765ZM46.484 27.2984V9.94119H40.5396V6.44165H57.0572L55.8827 9.94119H50.6133V27.2984H46.484ZM58.3384 27.2984V6.44165H71.7237L70.5492 9.94119H62.4324V14.5602H65.7434C68.4132 14.5602 69.8018 15.2098 70.7626 16.0395C71.5104 16.6892 72.7915 18.1323 72.7915 20.9837C72.7915 23.798 71.4743 25.3493 70.3708 26.1435C69.0896 27.045 67.7371 27.2984 64.9955 27.2984H58.3384ZM62.4324 23.7981H65.5297C66.7042 23.7981 67.4159 23.5091 67.9143 22.8594C68.1637 22.535 68.5194 21.9571 68.5194 20.8748C68.5194 19.7925 68.1637 19.0346 67.4516 18.4931C67.0249 18.1686 66.4547 17.9886 65.494 17.9886H62.4324V23.7981Z" fill="#0A2973"/>
</svg>
